<svg id="Layer_1" data-name="Layer 1" xmlns="http://www.w3.org/2000/svg" xmlns:xlink="http://www.w3.org/1999/xlink" viewBox="0 0 534.83 296.38"><defs><style>.cls-1{fill:none;}.cls-2{clip-path:url(#clip-path);}.cls-3{fill:#303838;}</style><clipPath id="clip-path" transform="translate(-26.72 -203.06)"><rect class="cls-1" width="611.93" height="792"/></clipPath></defs><title>filter</title><g class="cls-2"><path class="cls-3" d="M65.41,353.88a10.8,10.8,0,0,1-6-5.61,10.06,10.06,0,0,1,.57-9.22c4-7.64,14.8-4.09,21.54-3.94,4.18.1,8.34-.2,12.51-.24,4.53-.05,9.07.08,13.59.21,4.3.12,8.6.25,12.91.21s8.67-.31,13-.49c7.88-.33,15.76-.35,23.62-.91,10.89-.76,21.89-2.36,32.82-2.41,3.08,0,6.91.75,8.49,3.67,1.86,3.46.75,11.16-2.45,13.61a14.42,14.42,0,0,1-4.76,2.12c-11.52,3.35-24,3.2-35.9,3.87-8.71.49-17.43.58-26.14,1-4.49.21-9,.33-13.49.26-4.32-.06-8.63-.25-13-.33-2.78,0-5.57-.11-8.36-.08s-5.57.19-8.35.25a78.74,78.74,0,0,1-9.09-.29c-1.1-.09-2.19-.25-3.29-.4-1.39-.2-2.79-.4-4.2-.48l.83,0c-.73,0-1.4-.09-2.07-.18a14.72,14.72,0,0,1-2.78-.64" transform="translate(-26.72 -203.06)"/><path class="cls-3" d="M192.07,305.08A12.05,12.05,0,0,1,189,297.8a10.66,10.66,0,0,1,5.21-9.49,12,12,0,0,1,2.94-1.23,9.73,9.73,0,0,1,3.28-.6,12,12,0,0,1,9.1,3.83,11.37,11.37,0,0,1-3.83,18,11.77,11.77,0,0,1-2,.67,12.07,12.07,0,0,1-11.59-3.9" transform="translate(-26.72 -203.06)"/><path class="cls-3" d="M345.15,426.27a27.05,27.05,0,0,1-15.59-7.71,55.29,55.29,0,0,1-4.83-5.79,29.59,29.59,0,0,1-3.33-6.35c-2-4.77-3.68-9.77-3.62-14.95.06-4.52.23-9.06.61-13.56.37-4.28,1-8.55,1.57-12.82s1.18-8.68,1.92-13c.7-4.09,1.41-8.17,2.4-12.2s1.85-7.86,2.81-11.78,2.1-8.06,3-12.13q1.43-6.44,3.13-12.82c2.13-8,3.92-16.09,6.21-24.06,1.33-4.62,2.84-9.18,4.29-13.76.58-1.83,1.14-3.67,1.76-5.49.7-2,1.54-4,2.32-6,1.37-3.53,2.26-7.9,6.13-9.74a11.69,11.69,0,0,1,6.14-.92,13.06,13.06,0,0,1,7.57,3.22c5.8,5.33,1.82,11.76-.49,17.69-1.87,4.82-3.36,9.77-4.92,14.7-2.39,7.85-4.25,15.81-6.29,23.75-1.08,4.2-2.22,8.39-3.27,12.61-1,4-1.8,8.12-2.85,12.16-1.32,5.1-2.43,10.26-3.73,15.38s-2.19,10.14-3,15.26c-.84,5.36-1.47,10.75-2.16,16.13-.9,7-3,14.48-1.14,21.53,3.29,12.47,18.71,12.51,25.15,2.57q3.67-5.69,7.66-11.2c2.1-2.91,3.86-7.09,8-7.71s9,1.89,10.22,5.78c1.32,4.12-1.34,8.57-3.47,11.93a110.91,110.91,0,0,1-9.48,12.81,2.85,2.85,0,0,1-.23.26,3.11,3.11,0,0,1-.29.33,100.93,100.93,0,0,1-10.15,9.89,28,28,0,0,1-22,6" transform="translate(-26.72 -203.06)"/><path class="cls-3" d="M410.71,428.49a35.2,35.2,0,0,1-6.42-1.41,54.54,54.54,0,0,1-5.67-2.28,36.58,36.58,0,0,1-9.79-6.67,40.65,40.65,0,0,1-11.35-21.2,51.49,51.49,0,0,1-1.32-10.83c0-.32,0-.63,0-1a9.36,9.36,0,0,1,0-1.4c.05-10.87.93-20.82,6.55-30.57,9.23-16.05,29.83-30.3,49.45-21a27.29,27.29,0,0,1,4.95,2.92,38.69,38.69,0,0,1,5.16,4.83A23.7,23.7,0,0,1,448.11,353a21.57,21.57,0,0,1-.35,7.38,45.66,45.66,0,0,1-2,6,44.61,44.61,0,0,1-6.23,11.36,42.28,42.28,0,0,1-9,8.42,66.3,66.3,0,0,1-11.18,6.59,44.09,44.09,0,0,1-11.23,3.35,60.83,60.83,0,0,1-11.29.21h-.36c.12.35.25.7.38,1,.57,1.33,1.18,2.64,1.85,3.92.45.74.94,1.46,1.44,2.17.45.54.91,1.06,1.38,1.58.65.61,1.3,1.22,2,1.79.45.33.92.64,1.39.94,1,.55,2,1.07,3.08,1.54s1.9.74,2.87,1.05,1.78.38,2.68.52,1.82.21,2.74.26q1,0,2-.09c1.58-.22,3.15-.49,4.7-.83,2.19-.56,4.33-1.25,6.46-2,1.24-.48,2.45-1,3.65-1.58,1.88-1,3.68-2.21,5.45-3.41,1.53-1.09,3-2.23,4.42-3.46,1.76-1.67,3.44-3.39,5-5.19,1.05-1.32,2-2.68,3-4.07a207.78,207.78,0,0,0,11.54-20.17c2.48-5.47,2.86-6.52,5-12.11s4.09-11.07,5.86-16.7a71.41,71.41,0,0,0,1.68-7c-.55-.77-1.05-1.58-1.52-2.37a17.43,17.43,0,0,1-2.07-5.1,17.62,17.62,0,0,1-.22-4.47,40.66,40.66,0,0,1,.69-5.37c.25-1.5.58-3,1-4.46.47-1.82.94-3.65,1.54-5.44a10.45,10.45,0,0,1,6.67-6.74,10.11,10.11,0,0,1,10.72,3.3,17.64,17.64,0,0,1,2.17,3.44,16.54,16.54,0,0,1,1.17,2.71,10.5,10.5,0,0,1,.44,4.09c0,.32,0,.64-.05,1-.08,4.13-.32,8.24-.75,12.34.95.36,1.91.7,2.88,1a70.18,70.18,0,0,0,6.93,1.38c1.66.23,3.32.45,5,.65a55.78,55.78,0,0,1,5.93.9c3,.71,6.33,1.5,8.89,3.3a12.16,12.16,0,0,1,3.55,3.7,16.2,16.2,0,0,1,2.15,7,27.75,27.75,0,0,1-.57,6.92c-.29,1.72-.6,3.44-.95,5.15-.53,2.66-1.23,5.27-1.91,7.89s-1.31,5.57-1.9,8.38c-1.16,5.44-.59,6.32-1.52,11.8-.31,2-.59,4-.71,6s-.18,4.09-.22,6.14a51.38,51.38,0,0,0,.2,5.55c.11.77.23,1.55.39,2.31q.19.63.42,1.23c.4.91.84,1.8,1.31,2.67.29.49.59,1,.91,1.42s.82,1,1.25,1.47l.16.14c.47.26,1,.49,1.45.72l.47.18.61,0c.37-.05.73-.12,1.1-.19l.67-.21.84-.38c.78-.44,1.54-.9,2.29-1.39,1.26-.92,2.47-1.91,3.66-2.92.5-.47,1-1,1.47-1.45s.87-1.12,1.27-1.71a54.42,54.42,0,0,1,3.2-5.14,19.91,19.91,0,0,1,6.51-5.39l.52-.25,1.61-.38a2.59,2.59,0,0,0,.48,0h.34l.41.05a5.72,5.72,0,0,1,.57.11l.57.13c.41.09.83.17,1.24.28.21.07.43.16.64.25a15.59,15.59,0,0,1,1.41.72c.25.16.5.34.74.53s.35.31.51.47a12.7,12.7,0,0,1,.87,1.07c.22.3.43.61.62.93s.13.46.18.68a13.73,13.73,0,0,1-.3,6.94,17.45,17.45,0,0,1-1.7,4l-1.34,2.22a35.45,35.45,0,0,1-3.32,4.93,46.54,46.54,0,0,1-8.79,8,40.73,40.73,0,0,1-6.35,3.72,24,24,0,0,1-4.74,1.57c-.52.12-1,.22-1.57.32a20.25,20.25,0,0,1-10.67-.72,24.72,24.72,0,0,1-8.35-4.72,34,34,0,0,1-6.68-9.09,33,33,0,0,1-2.22-5.28,32,32,0,0,1-1.23-6.59,78.39,78.39,0,0,1-.13-10.62c.23-7.34-.3-10.06,1.31-17.24,1.07-4.77,1.94-9.58,3.16-14.32.58-2.28,1.21-4.55,1.74-6.86.48-2.12.87-4.27,1.23-6.42a2.34,2.34,0,0,1,0-.26c-.5-.11-1-.21-1.49-.3-6.09-.8-12.35-1.37-18.24-3.14-1,3.26-2.05,6.5-3.15,9.73-2.36,7-3.35,9.29-6.17,16.11-1.55,3.74-3.2,7.45-5.08,11.05-1.77,3.38-3.73,6.65-5.7,9.93s-4,6.74-6.22,10a59.68,59.68,0,0,1-7.68,8.84c-1.54,1.51-3.17,2.95-4.85,4.31s-3.62,2.63-5.48,3.87a51.59,51.59,0,0,1-10.22,5.37,76.84,76.84,0,0,1-12.74,3.71,43.72,43.72,0,0,1-6.66.8,32.08,32.08,0,0,1-4.61-.19c-.78-.08-1.55-.18-2.33-.29m8.33-81c-4.87,1-9.82,4.58-12.89,7.43a37,37,0,0,0-10.7,18.91c-.25,1.08-1.5,4-.47,4.95.76.69,2.44.49,3.42.46a36.25,36.25,0,0,0,15.14-3.59c1.56-.87,3.08-1.78,4.57-2.76s2.71-2,4-3c.64-.6,1.25-1.22,1.86-1.86.68-.84,1.32-1.7,1.93-2.59.44-.72.84-1.46,1.22-2.22,2.2-4.42,4.88-9.75.41-13.7a9.44,9.44,0,0,0-8.49-2" transform="translate(-26.72 -203.06)"/><path class="cls-3" d="M305.94,308.93a7.62,7.62,0,0,1-3.59-3.63,10.22,10.22,0,0,1,4.15-13.19,19.14,19.14,0,0,1,8.83-2.29c2.28-.14,4.6-.13,6.88-.13,2.69,0,5.39.12,8.09.21,2.39,0,5.9,0,8.27.28,4,.41,6.75-.45,10.77-.34,1.87,0,3.75-.08,5.62-.13,2.52-.06,5,0,7.53,0,6.13.13,12.09.64,18.15,1.36a26,26,0,0,1,8.79,2.57c3.2,1.63,5.11,3.9,4.79,7.42s-2.11,7.18-5.69,8.78a25.67,25.67,0,0,1-11.85,1.72c-6.11-.43-12.16-.89-18.29-1.17-2.32-.11-4.5.11-6.83.16-3.35.06-6.71-.15-10.06-.28-2.63,0-5.25.17-7.88.27-3.16.12-6.31-.07-9.47-.15s-6.41-.05-9.61-.13c-3-.07-6.12-.12-8.6-1.33" transform="translate(-26.72 -203.06)"/><path class="cls-3" d="M316.62,291.44h0l-.27-.21c.25.17.5.34.76.5l-.49-.29" transform="translate(-26.72 -203.06)"/><path class="cls-3" d="M342.39,313.68l-.56-.35a9.27,9.27,0,0,0-7.82-.51c-3,1.24-3.51,4.08-4.66,6.77-2.63,6.17-5.06,13.76-7.66,19.94-8,19-13.15,29.5-24.56,47-1.3,2-7.74,10.41-9.2,12.31a26.28,26.28,0,0,1-9.53,8,13.57,13.57,0,0,1-12.49-.29c-5.63-2.82-8.1-8.65-10.46-13.91-.64-1.65-1.18-3.32-1.67-5a98.73,98.73,0,0,1-1.88-10q-.36-3.71-.44-7.42c2-3.46,4-6.92,6-10.39,4.43-7.77,9.12-15.4,13.44-23.23,2.11-3.82,4.1-7.69,6.21-11.51s4.34-7.69,6.47-11.56,4.22-7.69,6.37-11.5,4.44-7.54,6.61-11.34a249.08,249.08,0,0,0,13.34-26.21c3.8-9,7.43-18.68,7.9-28.39a38.41,38.41,0,0,0-.51-8.7,31.34,31.34,0,0,0-12.14-19.9c-5.52-3.95-13.51-5.39-19.94-2.57-9.22,4.05-15.65,11.61-20.87,19.63-4.93,7.56-8.45,15.77-11.72,24.07-1.59,4-3.23,8.07-4.6,12.19-1.51,4.57-2.88,9.19-4.13,13.83-1.15,4.26-2.13,8.56-3,12.88s-1.54,8.95-2.25,13.43q-.85,5.25-1.76,10.51c-1.5,8.77-3.24,17.52-4.43,26.34-.89,6.6-1.78,13.2-2.35,19.83-.24,2.8-.93,9.25-.93,9.25-.2,2.9-3.32,7.74-4.89,10.17-5.38,8.35-12.16,25.64-23.88,27.48a8.52,8.52,0,0,1-4.23-.19c-3.12-1.15-3.57-5.7-3.82-8.39-.14-1.6-.19-3.19-.18-4.8a52.19,52.19,0,0,1,.58-6.11c.24-1.52.49-3,.74-4.55.64-3.85,1.22-7.71,2.08-11.52s2.92-16.19,3.78-20c1-4.42,3.1-9.8.09-13.94-1.72-2.36-3.87-3.09-6.88-3.27-4.24-.26-6.95,0-9.07,1.71a10.9,10.9,0,0,0-4.05,5.47c-1.55,4.06-2.15,8.37-3.18,12.56-1.65,6.7-3.74,22-4.84,28.76a68.4,68.4,0,0,0-1.11,14.35,55.06,55.06,0,0,0,2.26,13.16A28.52,28.52,0,0,0,181,420.44a20.65,20.65,0,0,0,9.47,5.15q1.24.26,2.55.39c11.16,1.17,20.54-1.75,28-9.89a111.1,111.1,0,0,0,8.66-10.86c1.6-2.25,3.24-4.48,4.85-6.73a53.83,53.83,0,0,0,2.73,6.2c2.33,4.47,4.76,8.95,8.18,12.78a39.92,39.92,0,0,0,4.86,4.87,36.24,36.24,0,0,0,6.92,4.37c12.95,6.13,27.25,1.21,37.92-6.75,11.83-8.83,18.33-20.57,25.18-32.91,2.07-3.73,4.28-7.38,6.37-11.1A119.87,119.87,0,0,0,333,362.84c3.37-8.1,7-16.1,10.26-24.25a43.84,43.84,0,0,0,2.33-7.55c.65-3.17,2-5.82,1.63-9.16a11.26,11.26,0,0,0-4.79-8.2M261,299.74c.78-4.79,1.63-9.57,2.76-14.31s2.41-9.5,3.82-14.21c1.44-4.49,3.09-8.9,4.81-13.31s3.44-8.71,5.37-13a105.8,105.8,0,0,1,5.61-10.08c1.3-1.85,2.66-3.63,4.1-5.38s4-5.37,6.89-3.85a5,5,0,0,1,2.24,4.2,27.93,27.93,0,0,1-.71,6.74,97.48,97.48,0,0,1-2.12,9.7c-1.79,5.41-4,10.74-6.3,16-4.72,9.72-10.51,18.94-15.84,28.37-4.38,7.76-8.67,15.57-13,23.34q1.24-7.08,2.39-14.18" transform="translate(-26.72 -203.06)"/><path class="cls-3" d="M143.32,208.81l.58-.36.14-.1-.72.46" transform="translate(-26.72 -203.06)"/><path class="cls-3" d="M110.5,424.75c3.78-15.06,6.29-30.46,8.92-46,4-23.33,6.73-47.37,10.42-70.94,3.56-22.81,6.51-48.46,16.61-69.65,2.78-5.82,7.27-13.13,14.82-14.11,8.81-1.14,14,5.08,14.8,12.68.33,4.62-2.07,7.86-2.1,12.3a7.86,7.86,0,0,0,1.33,4.87A8.17,8.17,0,0,0,178,256a14.94,14.94,0,0,0,11.53,1.11c6.44-2.14,7.56-7.07,8.23-12.73,1.2-10.08-.25-21.48-7.14-29.6-7.85-9.25-21.42-13.33-33.61-11.22-14.28,2.47-23,12.26-29.35,23.87-4.61,8.39-7,17.66-9.47,26.77-1.07,4-2.09,8-2.87,12.13-.86,4.47-1.59,9-2.42,13.45-5.24,28.38-9.44,56.93-13.47,85.49-3.22,22.71-6.5,47-13.61,69.14l-.27.84c-3.37,10.59-6.53,21.86-13,31.37C69.7,470.9,65.22,476.91,60,478.58c-4.45,1.44-11.93.66-14.15-3.82-1-2.11-1.15-4.73-2.92-6.34a6.57,6.57,0,0,0-3-1.4,13.81,13.81,0,0,0-8.34.84,8.13,8.13,0,0,0-4.28,3.48,8.61,8.61,0,0,0-.56,4.85c1.55,14.61,17.6,24.31,32.36,23.15,18-1.42,29.35-16.76,36.67-30.4,7.5-14,10.94-29.35,14.65-44.19" transform="translate(-26.72 -203.06)"/></g></svg>