<svg xmlns="http://www.w3.org/2000/svg" viewBox="0 0 218.02 182.38"><defs><style>.cls-1{fill:none;}</style></defs><title>filter</title><g id="Layer_1" data-name="Layer 1"><path class="cls-1" d="M158.6,140.6c-6,.35-10.39,5-11.5,11.89-.08.49-.15,1.25-.21,1.87a.72.72,0,0,0,.85.77l21.38-4a.73.73,0,0,0,.58-.83C168.62,143.77,167.71,140.07,158.6,140.6Z" transform="translate(-2.89 -2.31)"/><path d="M158.51,133.33c-12.62.67-21.68,8.14-21.68,22.78,0,15.55,10.08,21.36,22.25,21.36,8.74,0,14.66-3.38,17.68-6.54a.71.71,0,0,0,0-1l-4-3.78a.72.72,0,0,0-.93-.06,20.16,20.16,0,0,1-11.25,3.49c-4.85,0-9.77-.42-11.92-5.55a.72.72,0,0,1,.51-1l29.18-6.11a.71.71,0,0,0,.57-.63,23.49,23.49,0,0,0,.14-2.6C179,138.88,173,132.57,158.51,133.33ZM148.3,155a.72.72,0,0,1-.85-.77c.06-.63.13-1.38.21-1.88,1.12-6.88,5-11.42,10.94-11.77,9.11-.53,10,3.17,11.1,9.72a.72.72,0,0,1-.58.83Z" transform="translate(-2.89 -2.31)"/><path d="M56.54,109.84a7,7,0,0,0-5.35,2,6.74,6.74,0,0,0-1.89,4.81,6.76,6.76,0,0,0,7.24,6.91,6.76,6.76,0,0,0,7.24-6.91,6.77,6.77,0,0,0-1.89-4.81A7,7,0,0,0,56.54,109.84Z" transform="translate(-2.89 -2.31)"/><path d="M51.53,175.82h10a.72.72,0,0,0,.72-.72V136.38a.72.72,0,0,0-.72-.72h-10a.72.72,0,0,0-.72.72V175.1A.72.72,0,0,0,51.53,175.82Z" transform="translate(-2.89 -2.31)"/><path d="M74,175.82H84a.72.72,0,0,0,.72-.72V105.75A.72.72,0,0,0,84,105H74a.72.72,0,0,0-.72.72V175.1A.72.72,0,0,0,74,175.82Z" transform="translate(-2.89 -2.31)"/><path d="M118.93,167.83q-3.34,0-4.59-1.84a9.63,9.63,0,0,1-1.24-5.4V144.91a.72.72,0,0,1,.72-.72h14a.72.72,0,0,0,.72-.72v-7.2a.72.72,0,0,0-.72-.72h-14a.72.72,0,0,1-.72-.72V112.54s-.06-.7-.49-.74c-1.57-.15-5-.53-6.55-.67a1.07,1.07,0,0,0-1,.61c-1.07,9.58-2.24,18.49-3,23.17a.74.74,0,0,1-.72.64H94.7a.72.72,0,0,0-.72.72v7.2a.72.72,0,0,0,.72.72h6.55a.72.72,0,0,1,.72.72v15.68q0,8.53,3.62,12.47T117,177a26.37,26.37,0,0,0,6.75-.76c1.76-.46,5.84-2.18,7.43-4.14a.72.72,0,0,0,0-.92L127,166.13a.72.72,0,0,0-.91-.16A14,14,0,0,1,118.93,167.83Z" transform="translate(-2.89 -2.31)"/><path d="M218.47,134.38a12.74,12.74,0,0,0-4.75-.75,14,14,0,0,0-4.7.75,21.65,21.65,0,0,0-6.65,3.83c-.43.36-.82.76-1.24,1.13a12.06,12.06,0,0,0-.89.93l-1.6-5.11a.71.71,0,0,0-.69-.5h-8.47a.72.72,0,0,0-.72.72v40a.72.72,0,0,0,.72.72h10a.72.72,0,0,0,.72-.72l0-24.94a.69.69,0,0,1,.1-.37,13.69,13.69,0,0,1,5-5,12.94,12.94,0,0,1,6.32-1.92,11.36,11.36,0,0,1,5.83,1.37.71.71,0,0,0,1-.42l2.36-7.86a.7.7,0,0,0-.35-.84A20.1,20.1,0,0,0,218.47,134.38Z" transform="translate(-2.89 -2.31)"/><path d="M33.88,103.34c-9,0-16.94,4.58-17.63,16.11-.05.84-.11,12.51-.12,15.53a.71.71,0,0,1-.72.71H8.84a.72.72,0,0,0-.72.72v7.2a.72.72,0,0,0,.72.72h6.55a.72.72,0,0,1,.72.72v19.72c-.05.71-.1,1.37-.17,2-.61,5.42-1.38,8.88-6.64,9.55a12.7,12.7,0,0,1-5.52-.36.72.72,0,0,0-.9.76l.54,6.41a.69.69,0,0,0,.49.62,29.82,29.82,0,0,0,7.86,1c8.88,0,14.56-4.39,15.24-16.16.05-.9.11-21.32.12-24.2h14a.72.72,0,0,0,.72-.72v-7.2a.71.71,0,0,0-.71-.72H28a.7.7,0,0,1-.71-.73c.22-11.3-1.3-24.65,9-23.57a25.94,25.94,0,0,1,6.28,1.14.72.72,0,0,0,.92-.44l1.94-5.71a.73.73,0,0,0-.35-.87,10.33,10.33,0,0,0-2.89-1.05A38.87,38.87,0,0,0,33.88,103.34Z" transform="translate(-2.89 -2.31)"/><path d="M164.83,34.83h0a.08.08,0,0,1,0-.06A.13.13,0,0,0,164.83,34.83Z" transform="translate(-2.89 -2.31)"/><path d="M164.86,34.9s0,0,0,0h0C164.79,34.92,164.82,34.92,164.86,34.9Z" transform="translate(-2.89 -2.31)"/><path d="M163.31,29.55a40.51,40.51,0,0,0-4.8-.25c-3.13-.07-6.27-.1-9.41-.13Q141,29.1,133,29.05c0-.63,0-1.27,0-1.9,0-6-.16-13.79-4.46-18.56a1.9,1.9,0,0,0-.3-.4,30.57,30.57,0,0,0-2.51-2.58A14.19,14.19,0,0,0,119.5,3c-3.53-.68-7.21-1.06-10.71,0a19.27,19.27,0,0,0-9.05,5.46c-4.68,5.27-5.15,12.26-5.47,19L94.21,29H89.48c-7.32,0-14.65,0-22,0-1,0-2.06,0-3.09.05-3.1.17-7.36,1.56-7.24,5.4.08,2.73,2.27,4.6,4,6.48,1.34,1.46,2.64,2.95,3.95,4.44,7.64,8.77,15,17.75,22.41,26.75C94,80,100.42,87.9,106.72,95.93a11.3,11.3,0,0,0,4.09,3.62,6.5,6.5,0,0,0,6-.46c2.35-1.37,4.26-3.68,6.12-5.64,3.78-4,7.41-8.1,11-12.24,7.88-9.11,15.54-18.42,23.08-27.83,2.77-3.46,5.53-6.94,8.24-10.46,1.75-2.27,4.21-4.87,4.3-7.89C169.66,31.52,166.24,30,163.31,29.55ZM122.63,61.11l-.11.08a10.78,10.78,0,0,1-1.43.85,15.26,15.26,0,0,1-3.21,1.11,22.75,22.75,0,0,1-8.44.44c-.35-.05-.7-.11-1-.18a10.88,10.88,0,0,0,3.75-3.56c2.65-4.06,3.49-9.4,4-14.13a60.66,60.66,0,0,0,0-12l12,.06c-.05,1.94-.11,3.89-.15,5.82a57.68,57.68,0,0,1-1.86,14.51A23.92,23.92,0,0,1,125,57.68a15.38,15.38,0,0,1-.88,1.65c-.17.28-.34.55-.53.81s0,0-.28.35-.34.35-.52.51ZM98.79,33.64l12.72,0c.12,1.14.22,2.29.27,3.44A51.36,51.36,0,0,1,110.32,52c-1,3.77-2.94,8.71-7.52,8,0-.08-.11-.15-.15-.23a11.8,11.8,0,0,1-.67-1.2,17.61,17.61,0,0,1-1.06-2.86,44.81,44.81,0,0,1-1.46-7.45A111.33,111.33,0,0,1,98.79,33.64ZM120.69,29h-5c-.55-4.24-1-8.62.43-12.72.67-1.86,1.93-3.91,3.83-4.68a7.43,7.43,0,0,1,5.15.19c2.86,3.4,3.15,8.75,3.23,13.15,0,1.37,0,2.73,0,4.1Zm-21.4-6.81a20.88,20.88,0,0,1,2-7.93,13.63,13.63,0,0,1,6.35-5.93,15,15,0,0,1,8.7-1.12c.51.06,1,.14,1.52.22a9.44,9.44,0,0,0-2.75,1.83c-3.24,3.11-4.51,7.79-4.66,12.15a49.26,49.26,0,0,0,.47,7.57l-12,0C99,26.7,99.08,24.44,99.29,22.19Zm64.79,14.55c-.42.65-.91,1.27-1.38,1.89s-.78,1-1.18,1.54l-.21.27-.18.23-.83,1.07q-1.89,2.43-3.81,4.84-10.44,13.14-21.27,26c-3.7,4.36-7.44,8.69-11.27,12.93-1.61,1.78-3.23,3.54-4.89,5.27-.75.78-1.5,1.55-2.26,2.31s-2.08,2.34-3.41,2.38-2.52-1.74-3.28-2.69c-.52-.65-1-1.31-1.55-2L104.77,86q-5-6.26-10.08-12.46c-7.35-9-14.74-18-22.28-26.84-2.72-3.19-5.45-6.39-8.29-9.47-.53-.58-1.13-1.13-1.63-1.74a4.52,4.52,0,0,1-.61-1l0-.11a.68.68,0,0,1,.16-.11,10.64,10.64,0,0,1,4.34-.64c6.48-.06,13,0,19.45,0h8.28a120.26,120.26,0,0,0,.49,12.88c.54,5.57,1.27,12.18,4.86,16.76a1.89,1.89,0,0,0,.34.46,2.48,2.48,0,0,0,.33.49c3.67,4.22,10.67,4.65,15.82,4a21.23,21.23,0,0,0,8.26-2.55,12.77,12.77,0,0,0,5-6.17c2.42-5.52,3.18-11.7,3.46-17.68.13-2.68.2-5.37.25-8.07,3.66,0,7.32,0,11,.06,5.81,0,11.63,0,17.44.26.25,0,1.07.09,1.18.08a10,10,0,0,1,1.72.42,1.35,1.35,0,0,1,.4.19l.16.09h0l0,0h0s0,.07,0,.05l0,.18A4.3,4.3,0,0,1,164.08,36.74Zm.8-1.86,0,0,0,0Zm0,0s0,0,0,0h0a0,0,0,0,1,0,0s0,0,0,0C165.08,34.68,165,34.81,164.88,34.88Z" transform="translate(-2.89 -2.31)"/></g></svg>