<svg id="Layer_1" data-name="Layer 1" xmlns="http://www.w3.org/2000/svg" xmlns:xlink="http://www.w3.org/1999/xlink" viewBox="0 0 219.24 178.82"><defs><style>.cls-1{fill:none;}.cls-2{clip-path:url(#clip-path);}.cls-3{fill:#231f20;}</style><clipPath id="clip-path" transform="translate(-14.89 -9.69)"><rect class="cls-1" x="-192.43" y="-117" width="611.93" height="792"/></clipPath></defs><title>FILTER_LOGO</title><g class="cls-2"><path class="cls-3" d="M123.75,94.38a10.13,10.13,0,0,0,2,2,2.72,2.72,0,0,0,3.25,0,8.57,8.57,0,0,0,1.34-1.64c1.9-2.34,3.81-4.66,5.72-7q9.21-11.26,18.44-22.52,9-11,18-22c1-1.21,2-2.4,3-3.6.79-1,2.34-2.28,2.75-3.45.46-1.34-.22-4.28-2.25-4.28H142.24c0,1.47,0,3,0,4.59v1.29H167.7L127.16,88,85.78,37.77h27.91c0-.43,0-.85,0-1.29,0-1.59,0-3.13,0-4.6H83.23c-2.34,0-7.47-.84-8.43,2-.86,2.53,3.36,5.95,4.79,7.66l6.65,8,21.15,25.32q8.17,9.78,16.36,19.56" transform="translate(-14.89 -9.69)"/><path class="cls-3" d="M131.65,31.89h10.59c-.12-6.15-.58-11.13-2-14.81a25.34,25.34,0,0,0-2.86-.41c-6.59-.69-5.54,8-5.7,15.22" transform="translate(-14.89 -9.69)"/><path class="cls-3" d="M120.26,56.64c3.34-.42,3.83-2.62,4.22-6.07,0-.37.07-.8.1-1.26V37.77H113.69c0,7.92.56,14.16,2.48,18.49a8.82,8.82,0,0,0,4.09.38" transform="translate(-14.89 -9.69)"/><path class="cls-3" d="M131.52,51.72c-.44,7.47-4.05,10.26-9.69,10.26h-.33a15.39,15.39,0,0,0,6.48,1.3c13.64.12,14.28-9.25,14.3-25.51H131.59c0,2.24,0,13.39-.07,13.95" transform="translate(-14.89 -9.69)"/><path class="cls-3" d="M124.66,21.79c.44-7.32,5.47-10.23,11.2-10.23h0A14.68,14.68,0,0,0,128,9.69c-12.36,0-14.06,8-14.27,22.2h10.87c0-1.48,0-9.54.08-10.1" transform="translate(-14.89 -9.69)"/><path class="cls-3" d="M131.65,31.91h10.52l0,5.83H131.59v0h10.69V36.49c0-1.6,0-3.13,0-4.6H131.65v0" transform="translate(-14.89 -9.69)"/><path class="cls-3" d="M113.69,37.77h10.88v0H113.74l0-5.82,10.86,0v0H113.71c0,1.46,0,3,0,4.6,0,.43,0,.85,0,1.28" transform="translate(-14.89 -9.69)"/><path class="cls-3" d="M171.58,135.17c-12.63.67-21.68,8.14-21.68,22.78,0,15.54,10.08,23.36,22.25,23.36,9.22,0,15.3-3.77,18.15-7.06l-5-4.72c-2.31,2.07-7.25,3.88-11.72,3.88-5.1,0-10.82-2.38-12.76-8.29l31-5.48a25,25,0,0,0,.19-3.13c0-14.8-6.06-22.11-20.52-21.34m-11.72,22c.07-.5.18-2,.31-2.82,1.11-6.87,5.52-11.54,11.5-11.89,9.43-.55,10.07,4.43,11.21,11.42Z" transform="translate(-14.89 -9.69)"/><path class="cls-3" d="M69.6,113.68a7,7,0,0,0-5.34,2,6.77,6.77,0,0,0-1.89,4.81,6.76,6.76,0,0,0,7.23,6.91,6.76,6.76,0,0,0,7.24-6.91A6.77,6.77,0,0,0,75,115.67a7,7,0,0,0-5.35-2" transform="translate(-14.89 -9.69)"/><rect class="cls-3" x="48.99" y="129.8" width="11.45" height="40.16"/><rect class="cls-3" x="71.42" y="99.17" width="11.45" height="70.79"/><path class="cls-3" d="M132,171.66q-3.35,0-4.59-1.83a9.67,9.67,0,0,1-1.24-5.4V148h15.45v-8.64H126.16V114.59h-8.31l-2.7,24.79h-8.1V148h8v16.41q0,8.53,3.62,12.47t11.39,3.94a26.86,26.86,0,0,0,6.75-.75c1.91-.51,6.53-2.48,7.77-4.64l-4.91-5.95a14.17,14.17,0,0,1-7.67,2.16" transform="translate(-14.89 -9.69)"/><path class="cls-3" d="M231.54,136.21a12.76,12.76,0,0,0-4.76-.75,13.9,13.9,0,0,0-4.69.75,21.65,21.65,0,0,0-6.65,3.83c-.43.36-.82.76-1.24,1.13a12.06,12.06,0,0,0-.89.93l-1.75-5.61h-9.72v43.39h11.44l.05-27.86a13.75,13.75,0,0,1,5.08-5.21,13,13,0,0,1,6.32-1.91,10.67,10.67,0,0,1,6.59,1.87l2.81-9.35a20.48,20.48,0,0,0-2.59-1.21" transform="translate(-14.89 -9.69)"/><path class="cls-3" d="M45.94,107.17c-9,0-16.93,4.58-17.63,16.11-.06,1-.13,16.24-.13,16.24h-8v8.64h8l0,20.42c-.05.72-.11,1.39-.17,2-.61,5.42-1.38,8.88-6.64,9.55a13.89,13.89,0,0,1-6.5-.63l.67,7.91a27.75,27.75,0,0,0,8.3,1.12c8.88,0,14.57-4.39,15.25-16.15,0-.91.1-21.32.11-24.2H54v-8.64H39.31c.3-11.44-1.51-25.4,9-24.3a24.39,24.39,0,0,1,7,1.39l2.38-7a10.91,10.91,0,0,0-3.43-1.34,39.36,39.36,0,0,0-8.25-1.12" transform="translate(-14.89 -9.69)"/></g></svg>