<?xml version="1.0" encoding="utf-8"?>
<!-- Generator: Adobe Illustrator 23.1.1, SVG Export Plug-In . SVG Version: 6.00 Build 0)  -->
<svg version="1.1" id="Layer_1" xmlns="http://www.w3.org/2000/svg" xmlns:xlink="http://www.w3.org/1999/xlink" x="0px" y="0px"
	 viewBox="0 0 1128.22 795.3" style="enable-background:new 0 0 1128.22 795.3;" xml:space="preserve">
<path d="M268.77,645.5c-2.63-0.73-4.35-3.78-5.2-6.15c-1.44-4-1.53-8.61-0.19-12.65c1.87-5.67,4.46-11.05,7.21-16.35
	s5.5-10.6,8.58-15.72c3.15-5.22,6.46-10.34,9.58-15.58c6.15-10.34,13.27-19.97,20.94-29.23c7.73-9.32,16.43-17.64,26.4-24.53
	c2.49-1.72,5.04-3.35,7.59-4.98c-0.01,0.01-0.02,0.01-0.03,0.02c2.39-1.52,4.79-2.99,7.28-4.35c2.93-1.59,6.01-2.91,9.1-4.17
	c5.71-2.35,11.48-4.49,17.39-6.27c5.64-1.7,11.53-2.5,17.31-3.58c5.74-1.07,11.49-2.15,17.26-3.05c23.07-3.6,46.26-6.44,69.48-8.86
	c11.79-1.23,23.49-3.15,35.27-4.46c5.55-0.62,11.11-1.19,16.67-1.76c5.9-0.61,11.85-0.75,17.77-1.01c4.3-0.19,8.56-0.2,12.85,0.11
	c3.79,0.27,7.56,0.79,11.34,1.19c1.34,0.12,2.68,0.22,4.02,0.37c1.66,0.18,3.36,0.8,4.88,1.46c1.77,0.78,3.49,1.87,4.93,3.16
	c1.37,1.23,2.59,2.56,3.55,4.14c0.62,1.02,1.19,2.38,0.87,3.59c-0.34,1.29-1.46,2.49-2.41,3.36c-1.44,1.31-3.1,2.28-4.89,3.02
	c-1.99,0.82-4.19,1.32-6.34,1.48c-2.98,0.22-6.01-0.2-8.96-0.54c-1.82-0.21-3.64-0.45-5.46-0.64c-4.03-0.36-8.07-0.51-12.12-0.39
	c-5.49,0.2-11.02,0.35-16.48,0.87c-5.61,0.54-11.21,1.16-16.82,1.76c-11.75,1.28-23.42,3.23-35.17,4.45
	c-11.54,1.2-23.08,2.43-34.59,3.91c-11.59,1.49-23.18,3.1-34.74,4.85c-1.83,0.28-3.67,0.58-5.5,0.89c-4.77,0.84-9.53,1.76-14.3,2.63
	c-4.98,0.91-9.9,1.82-14.76,3.24c-5.97,1.96-11.86,4.24-17.6,6.8c-3.01,1.47-5.91,3.09-8.74,4.9c0.01-0.01,0.01-0.01,0.02-0.02
	c-0.18,0.12-0.37,0.23-0.55,0.35c-4.61,2.98-9.15,6.03-13.43,9.48c-3.89,3.35-7.57,6.87-11.08,10.6
	c-5.51,6.26-10.69,12.8-15.59,19.54c-1.84,2.62-3.63,5.27-5.33,7.99c-1.95,3.12-3.75,6.33-5.68,9.46
	c-3.81,6.17-7.66,12.27-11.13,18.64c-3.05,5.78-6.07,11.54-8.48,17.61c-0.7,1.94-1.39,3.86-2.46,5.65c-1.04,1.73-2.39,3.4-3.9,4.73
	c-1.29,1.14-2.65,2.14-4.19,2.93c-0.97,0.49-2.28,1.16-3.46,1.16C269.23,645.59,268.99,645.56,268.77,645.5z"/>
<path d="M503.5,556.85c-2.65-0.26-5.23-0.83-7.63-2.02c-1.59-0.78-3.19-1.8-4.23-3.27c0.02,0.03,0.04,0.06,0.07,0.08
	c-0.08-0.09-0.14-0.18-0.21-0.3c-0.47-0.75-0.37-1.79-0.21-2.61c0.27-1.37,0.86-2.62,1.56-3.81c1.95-3.33,5.3-5.77,8.77-7.31
	c2.82-1.25,6.08-1.63,9.1-2.21c2.78-0.53,5.56-1.07,8.35-1.59c11.45-2.12,22.91-4.11,34.22-6.91c6.57-1.63,13.07-3.49,19.53-5.49
	c0.07-0.02,0.13-0.04,0.2-0.06c0.16-0.05,0.31-0.1,0.47-0.15c-0.15,0.04-0.3,0.09-0.45,0.14c5.59-1.77,11.22-3.53,16.64-5.78
	c1.69-0.85,3.35-1.76,4.97-2.72c-0.23-0.18-0.47-0.35-0.7-0.52c0.1,0.08,0.21,0.15,0.31,0.23c-2.71-1.99-4.96-4.33-6.65-7.3
	c-1.14-2-2.14-4.42-2.28-6.75c-0.05-0.86-0.06-1.83,0.41-2.59c0.45-0.74,1.25-1.26,1.97-1.71c2.35-1.44,5.27-1.91,7.99-1.79
	c7.61,0.34,14.32,5.31,18.24,11.63c2.27,3.67,2.84,8.11,2.14,12.3c-0.63,3.81-2.45,7.13-5.14,9.86c-2.05,2.09-4.76,3.59-7.29,5.03
	c-2.79,1.59-5.62,3.03-8.62,4.19c-5.63,2.17-11.4,3.97-17.16,5.77c-10.85,3.39-21.85,6.25-32.99,8.55
	c-8.7,1.79-17.45,3.24-26.18,4.91c-2.2,0.42-4.4,0.84-6.6,1.28c-2.38,0.47-4.72,1-7.14,1C504.48,556.93,503.99,556.9,503.5,556.85z"
	/>
<path d="M580.68,594.42c-1.98-0.04-4.02-0.43-5.89-1.06c-2.13-0.73-4.02-1.86-5.94-3c-5.01-2.97-9.87-6.15-14.98-8.97
	c-4.65-2.43-9.43-4.55-14.24-6.63c-4.93-2.13-9.88-4.2-14.88-6.13c-4.17-1.53-8.38-2.89-12.61-4.23c-4.33-1.37-8.68-2.68-13.1-3.77
	c-2.38-0.52-4.77-0.97-7.19-1.28c-2.36-0.18-4.72-0.22-7.08-0.25c-0.99-0.01-1.99-0.04-2.98-0.07c-1.31,0.23-2.66,0.3-3.96,0.27
	c-0.84-0.02-1.67-0.12-2.5-0.2c-1.88-0.19-3.54-1.15-5.04-2.24c-5.22-3.8-4.88-12.6,0.39-16.17c2.62-1.77,5.31-2.16,8.39-2.13
	c1.28,0.01,2.56,0.06,3.83,0.08c2.81,0.05,5.62,0.02,8.43,0.2c6.38,0.41,12.56,1.86,18.7,3.57c11.35,3.16,22.41,7.16,33.27,11.7
	c5.2,2.17,10.42,4.37,15.47,6.87c5.45,2.69,10.69,5.73,15.85,8.94c2.14,1.33,4.29,2.65,6.45,3.94c3.34,1.99,6.17,4.88,7.92,8.37
	c1.09,2.16,1.96,4.62,1.82,7.08c-0.04,0.66-0.12,1.39-0.48,1.95c-0.39,0.63-1.05,1.05-1.67,1.43c-2.15,1.34-4.96,1.73-7.48,1.73
	C581.02,594.42,580.85,594.42,580.68,594.42z"/>
<path d="M611.59,525.93c-2.53-1.47-4.46-3.57-6.42-5.7c-1.48-1.61-2.93-3.26-4.37-4.91c-4.76-5.34-9.57-10.65-14.44-15.89
	c-2.34-2.51-4.76-4.92-7.28-7.24c-2.88-2.65-5.7-5.37-8.62-7.98c-3.72-3.2-7.55-6.29-11.18-9.6c-3.42-3.12-6.83-6.24-10.29-9.32
	c-2.66-2.32-5.38-4.57-8-6.95c-2.74-2.47-5.22-5.2-7.83-7.81c-2.6-2.58-5.11-5.23-7.57-7.94c-2.23-2.46-4.35-5.02-6.53-7.53
	c-2.73-3.04-5.46-6.09-8.16-9.17c-2.18-2.45-4.4-4.87-6.69-7.22c-2.52-2.59-4.86-5.33-7.22-8.06c-1.29-1.44-2.64-2.83-3.96-4.24
	c-2.33-2.48-3.97-5.54-4.84-8.83c-0.65-2.44-0.77-4.98-0.15-7.43c0.35-1.4,1.13-3.26,2.53-3.9c0.79-0.36,1.75-0.38,2.6-0.37
	c1.23,0.01,2.45,0.21,3.65,0.45c2.02,0.44,3.9,1.09,5.75,2.04c2.23,1.14,4.08,2.74,5.79,4.55c2.46,2.58,4.79,5.27,7.13,7.96
	c2.13,2.36,4.39,4.61,6.54,6.96c2.41,2.63,4.75,5.31,7.09,8c1.5,1.68,3.02,3.34,4.53,5.01c1.83,2.04,3.57,4.16,5.36,6.23
	c2.66,2.97,5.38,5.87,8.2,8.68c2.92,2.91,5.71,5.93,8.78,8.68c3.44,2.98,6.9,5.93,10.27,8.98c3,2.72,5.97,5.48,9,8.17
	c4.1,3.54,8.31,6.92,12.26,10.62c3.57,3.35,7.26,6.6,10.68,10.11c6.71,6.87,13.1,14.11,19.43,21.32c1.47,1.65,2.96,3.29,4.5,4.87
	c2.37,2.42,4.06,5.41,5.03,8.65c0.84,2.82,1.13,6.39-0.09,9.16c-0.36,0.81-0.82,1.44-1.63,1.84c-0.66,0.33-1.47,0.48-2.2,0.58
	c-0.61,0.08-1.22,0.12-1.83,0.12C617.99,528.85,614.51,527.63,611.59,525.93z"/>
<path d="M742.52,522.26c-1.14-0.6-1.68-2.33-1.95-3.47c-0.5-2.04-0.53-4.13-0.29-6.2c0.38-3.36,1.74-6.71,3.75-9.41
	c1.58-2.14,3.24-4.24,4.89-6.33c3.28-4.16,6.42-8.45,9.55-12.72c3.39-4.61,6.71-9.24,9.94-13.97c3.28-4.81,6.6-9.6,9.98-14.35
	c3.13-4.41,6.52-8.62,9.8-12.91c3.51-4.59,6.88-9.29,10.23-14c3.26-4.61,6.58-9.14,9.97-13.64c1.69-2.24,3.32-4.52,5.04-6.74
	c1.56-2.02,3.11-4.05,4.57-6.15c1.12-1.71,2.18-3.47,3.22-5.23c1.08-1.81,2.23-3.56,3.24-5.41c0.25-0.55,0.49-1.09,0.7-1.65
	c0.09-0.29,0.17-0.58,0.24-0.87c0.01-0.08,0.02-0.15,0.03-0.22c0-0.04-0.01-0.07-0.01-0.11c0-0.01,0-0.02-0.01-0.03c0,0,0,0,0,0
	c-0.02-0.03-0.04-0.07-0.06-0.1c-0.13-0.18-0.26-0.35-0.4-0.52c-0.47-0.28-0.96-0.55-1.45-0.8c-0.64-0.3-1.28-0.59-1.94-0.84
	c-0.19-0.06-0.37-0.11-0.56-0.16c-0.71-0.11-1.43-0.19-2.15-0.26c-5.46-0.26-10.96-0.01-16.41,0.22
	c-5.69,0.24-11.38,0.58-17.07,0.88c-11.44,0.6-22.9,1.02-34.35,1.45c-11.63,0.44-23.26,1.15-34.89,1.71
	c-11.84,0.56-23.69,0.89-35.53,1.48c-11.62,0.59-23.23,0.52-34.85,0.66c-11.93,0.14-23.85,0.59-35.77,1.05
	c-11.73,0.46-23.46,0.47-35.19,0.38c-5.85-0.05-11.69-0.23-17.53-0.38c-5.97-0.16-11.94-0.08-17.92-0.24
	c-9.52-0.26-19.04-0.91-28.56-0.49c-0.78,0.07-1.56,0.17-2.34,0.3c-0.46,0.12-0.91,0.25-1.37,0.39c-0.98,0.38-1.96,0.78-2.97,1.09
	c-0.82,0.25-1.66,0.44-2.49,0.66c0,0,0,0,0,0c-0.44,0.53-0.89,1.05-1.34,1.57c0.02-0.02,0.04-0.04,0.05-0.06
	c-0.04,0.04-0.07,0.08-0.1,0.12c0,0,0,0-0.01,0.01c0,0,0,0,0,0c-0.22,0.25-0.43,0.48-0.72,0.66c-1.36,0.82-3.12,0.39-4.5-0.09
	c-2.49-0.89-4.25-3.15-5.35-5.44c-1.03-2.14-1.13-5.03-0.46-7.29c0.87-2.92,2.54-5.25,4.85-7.2c2.55-2.16,5.99-3.38,9.21-4.16
	c5.62-1.37,11.57-1.12,17.32-1.08c5.64,0.04,11.28,0.34,16.91,0.55c5.97,0.23,11.94,0.13,17.91,0.26c5.9,0.12,11.79,0.32,17.69,0.4
	c11.89,0.16,23.79,0.14,35.67-0.31c11.67-0.44,23.34-0.87,35.01-1.07c11.79-0.2,23.56-0.05,35.34-0.61
	c11.86-0.56,23.72-0.95,35.58-1.49c11.45-0.52,22.9-1.25,34.36-1.7c11.48-0.45,22.95-0.86,34.43-1.43c5.8-0.29,11.59-0.66,17.38-0.9
	c5.64-0.24,11.31-0.53,16.95-0.33c3.15,0.11,6.32,0.34,9.36,1.23c2.65,0.78,5.18,2.03,7.59,3.37c4.08,2.27,7.1,5.77,9.16,9.93
	c3.11,6.3,2.13,13.7-0.83,19.84c-1.21,2.51-2.7,4.82-4.13,7.2c-1.17,1.94-2.32,3.89-3.58,5.78c-3.21,4.86-6.87,9.43-10.37,14.08
	c-3.26,4.34-6.49,8.69-9.63,13.12c-3.4,4.78-6.79,9.56-10.34,14.23c-3.22,4.24-6.57,8.37-9.68,12.69
	c-6.74,9.35-13.03,19.01-19.88,28.29c-3.19,4.31-6.33,8.67-9.63,12.89c-1.64,2.1-3.27,4.2-4.89,6.3c-2.26,2.93-4.93,5.05-8.22,6.69
	c-1.66,0.83-3.6,1.38-5.46,1.55c-0.47,0.04-0.96,0.07-1.44,0.07C744.71,522.95,743.54,522.78,742.52,522.26z"/>
<path d="M349.62,754.12c-1.39-0.62-1.99-2.38-2.42-3.71c-0.76-2.38-0.74-5.2-0.29-7.63c0.44-2.37,1.23-4.51,2.34-6.64
	c0.74-1.42,1.8-2.73,2.69-4.06c-0.11,0.16-0.23,0.33-0.34,0.5c2.58-3.81,5.23-7.56,8.11-11.14c3.84-4.76,8.11-9.3,12.57-13.5
	c3.93-3.7,8.64-6.25,13.54-8.43c4.91-2.19,10-4.16,15.2-5.53c4.18-1.1,8.37-2.12,12.54-3.27c3.98-1.09,7.9-2.36,11.84-3.57
	c3.97-1.22,7.9-2.47,11.96-3.36c3.86-0.85,7.72-1.79,11.59-2.6c5.11-1.04,10.28-2,15.44-2.78c5.25-0.79,10.49-1.3,15.77-1.76
	c5.65-0.49,11.28-0.83,16.95-1.01c4.95-0.16,9.91-0.21,14.86-0.5c3.69-0.27,7.38-0.53,11.07-0.76c4.1-0.26,8.2-0.33,12.3-0.54
	c3.97-0.32,7.94-0.87,11.9-1.36c4.67-0.57,9.32-1.09,14.01-1.42c-0.02,0-0.04,0-0.06,0c0.37-0.02,0.73-0.05,1.1-0.07
	c-0.41,0.03-0.82,0.05-1.22,0.08c0,0-0.01,0-0.01,0c0.6-0.04,1.21-0.08,1.81-0.12c-0.47,0.03-0.93,0.06-1.39,0.09
	c7.91-0.59,15.82-1.24,23.63-2.65c1-0.23,1.98-0.51,2.96-0.82c1.01-0.37,1.99-0.78,2.97-1.23c1.4-0.74,2.77-1.52,4.1-2.38
	c0.73-0.53,1.43-1.08,2.11-1.66c1.52-1.37,2.98-2.8,4.36-4.31c1.05-1.25,2.03-2.54,2.95-3.89c-0.24,0.36-0.49,0.72-0.73,1.09
	c0.91-1.36,1.83-2.71,2.75-4.06c2.58-3.9,5.04-7.96,7.18-12.12c1.14-2.34,2.14-4.75,3.23-7.12c1.23-2.66,2.6-5.26,3.86-7.91
	c1.03-2.17,1.97-4.39,2.98-6.57c1.29-2.77,2.7-5.48,4.09-8.2c2.19-4.42,4.24-8.92,6.27-13.42c2.08-4.61,4.16-9.24,6.15-13.89
	c1.91-4.48,3.41-9.11,5.3-13.59c2.17-5.11,4.59-10.12,6.79-15.22c0.91-2.11,1.77-4.24,2.55-6.4c0.51-1.55,0.93-3.12,1.36-4.69
	c0.5-1.81,1.04-3.61,1.47-5.43c0.11-0.63,0.2-1.26,0.27-1.9c0.02-0.87,0-1.74-0.04-2.61c-0.05-0.61-0.12-1.21-0.22-1.8
	c-0.09-0.35-0.19-0.7-0.31-1.05c-0.66-1.87-1.34-3.77-2.19-5.57c-0.16-0.3-0.32-0.59-0.49-0.88c-0.57-0.01-1.13,0-1.7,0.02
	c-0.38,0.04-0.74,0.08-1.12,0.13c-0.12,0.03-0.24,0.07-0.36,0.1c-0.23,0.09-0.46,0.19-0.69,0.29c-0.7,0.39-1.38,0.8-2.06,1.23
	c-0.7,0.5-1.39,1.02-2.06,1.58c-1.96,1.8-3.78,3.79-5.55,5.78c-3.32,3.9-6.28,8.1-9.16,12.34c-0.04,0.06-0.08,0.12-0.12,0.18
	c-3.25,4.82-6.29,9.72-9.02,14.86c-2.47,4.65-5.02,9.26-7.82,13.72c-2.79,4.46-5.52,8.98-8.06,13.59c-2.64,4.8-5.38,9.52-8.33,14.13
	c-3.12,4.88-6.11,9.84-9.39,14.61c-1.53,2.23-3.08,4.47-4.68,6.66c-1.94,2.65-4.12,4.98-6.62,7.12c-3.2,2.74-7.18,4.19-11.38,4.24
	c-1.79,0.02-3.58-0.02-5.36-0.12c-6.14-0.37-12.25-1.61-18.19-3.16c-2.55-0.66-5.05-1.46-7.58-2.18c-3.04-0.86-6.07-1.72-9.07-2.71
	c-5.27-1.74-10.69-2.93-16-4.52c-7.56-2.26-15.19-4.45-22.91-6.12c-4.07-0.75-8.18-1.3-12.3-1.8c-4.32-0.53-8.64-1.05-12.98-1.39
	c0.04,0,0.09,0.01,0.13,0.01c-0.03,0-0.06,0-0.09-0.01c0.02,0,0.05,0,0.07,0c-0.03,0-0.07,0-0.1-0.01c-0.01,0-0.02,0-0.03,0
	c0,0-0.01,0-0.01,0c-0.53-0.03-1.05-0.07-1.58-0.1c0.46,0.03,0.92,0.06,1.39,0.09c-6.21-0.42-12.43-0.61-18.65-0.3
	c-3.89,0.3-7.75,0.75-11.59,1.44c-4.01,0.86-7.96,1.94-11.84,3.24c-4.75,1.71-9.49,3.52-14.04,5.7c-1.09,0.57-2.17,1.17-3.22,1.83
	c-0.63,0.45-1.24,0.93-1.84,1.42c-1.44,1.3-2.85,2.58-4.49,3.65c-1.79,1.16-3.75,2.06-5.81,2.63c-1.75,0.49-3.59,0.68-5.39,0.51
	c-0.97-0.09-2.23-0.3-2.95-1.03c-1.47-1.48-1.68-3.97-1.79-5.93c-0.19-3.56,0.95-7.29,2.74-10.33c1.68-2.86,4.43-5.3,7.15-7.18
	c2.85-1.96,5.85-3.56,8.99-5.03c5.02-2.35,10.29-4.25,15.53-6.05c5.4-1.85,10.99-3.17,16.61-4.11c10.46-1.74,21.09-1.52,31.63-0.84
	c0.35,0.02,0.69,0.05,1.04,0.07c5.72,0.41,11.41,1.13,17.09,1.86c6.16,0.78,12.22,1.93,18.23,3.5c5.69,1.49,11.35,3.04,16.98,4.72
	c5.4,1.61,10.89,2.85,16.24,4.61c4.06,1.34,8.2,2.42,12.3,3.63c3.91,1.16,7.87,2.01,11.86,2.83c-0.44-0.09-0.88-0.18-1.33-0.27
	c2.01,0.39,4.01,0.71,6.04,0.89c1.33,0.07,2.67,0.12,4,0.12c0,0,0.01,0,0.01-0.01c0.44-0.42,0.87-0.85,1.29-1.29
	c2.4-2.91,4.51-6.09,6.61-9.21c3.05-4.61,5.94-9.33,8.89-14c2.97-4.71,5.61-9.6,8.35-14.44c2.5-4.38,5.19-8.65,7.81-12.96
	c2.78-4.54,5.24-9.25,7.78-13.93c2.66-4.91,5.69-9.57,8.82-14.18c0.17-0.28,0.35-0.55,0.55-0.82c0.19-0.27,0.37-0.55,0.56-0.82
	c3.24-4.74,6.61-9.35,10.42-13.66c1.52-1.72,3.11-3.38,4.72-5c2.43-2.46,5.2-4.5,8.14-6.32c4.38-2.7,9.2-3.86,14.29-3.94
	c1.63-0.03,3.29,0.04,4.9,0.3c2.24,0.37,4.27,1.19,6.25,2.3c3.28,1.83,5.81,4.62,7.66,7.85c1.53,2.67,2.53,5.51,3.61,8.37
	c2.01,5.3,2.64,10.97,2,16.6c-0.37,3.3-1.37,6.48-2.26,9.67c-0.8,2.88-1.66,5.71-2.71,8.51c-1.89,5.04-4.19,9.93-6.41,14.82
	c-1.13,2.5-2.27,4.99-3.28,7.53c-0.89,2.23-1.67,4.49-2.53,6.72c-1.81,4.68-3.92,9.23-5.94,13.82c-1.63,3.71-3.28,7.41-4.98,11.09
	c-2.01,4.36-4.16,8.64-6.33,12.92c-1.64,3.34-3.07,6.79-4.68,10.14c-1.05,2.18-2.16,4.33-3.19,6.52c-0.95,2.01-1.8,4.07-2.73,6.09
	c-3.02,6.55-6.91,12.67-10.93,18.64c0.01-0.01,0.01-0.02,0.02-0.03c-0.01,0.01-0.02,0.03-0.03,0.04c-0.1,0.15-0.21,0.31-0.31,0.46
	c0.06-0.09,0.12-0.18,0.18-0.27c-1.66,2.46-3.34,4.8-5.28,7.05c-2.63,2.95-5.49,5.78-8.64,8.17c-3.78,2.87-8.17,5.29-12.65,6.87
	c-5.13,1.82-10.5,2.65-15.89,3.35c-5.44,0.7-10.95,1.08-16.42,1.44c0,0,0,0,0,0c0,0,0,0,0,0c0,0,0,0,0.01,0c-0.01,0-0.01,0-0.02,0
	c-0.01,0-0.02,0-0.04,0c-0.05,0-0.1,0.01-0.15,0.01c-0.13,0.01-0.26,0.02-0.38,0.03c0.02,0,0.05,0,0.07-0.01
	c-0.24,0.02-0.47,0.03-0.71,0.05c-0.03,0-0.06,0-0.09,0.01c0.03,0,0.05,0,0.08-0.01c-0.03,0-0.06,0-0.09,0.01
	c-0.46,0.03-0.91,0.06-1.37,0.09c0.46-0.03,0.93-0.06,1.39-0.09c-6.89,0.48-13.75,1.49-20.61,2.3c-3.93,0.47-7.85,0.57-11.81,0.69
	c-3.5,0.1-7.01,0.39-10.51,0.62c-2.48,0.17-4.96,0.39-7.45,0.54c-2.46,0.16-4.92,0.16-7.38,0.22c-5.11,0.12-10.25,0.29-15.36,0.58
	c-5.67,0.39-11.37,0.81-16.99,1.58c-3.36,0.46-6.69,1-10.03,1.61c-2.73,0.5-5.49,0.92-8.22,1.46c-3.98,0.85-7.95,1.8-11.92,2.69
	c-4.33,0.98-8.55,2.42-12.8,3.71c-4.43,1.36-8.84,2.71-13.31,3.89c-4.51,1.18-9.08,2.19-13.51,3.66c-3.66,1.3-7.29,2.81-10.78,4.52
	c-1.05,0.55-2.09,1.13-3.09,1.76c-0.53,0.39-1.05,0.78-1.55,1.2c-3.02,2.76-5.84,5.82-8.59,8.85c-3.26,3.79-6.24,7.8-9.06,11.93
	c-1.88,2.8-3.7,5.52-6.49,7.53c-2.41,1.73-5.04,2.96-7.96,3.54c-0.74,0.15-1.59,0.26-2.43,0.26
	C351.24,754.57,350.37,754.45,349.62,754.12z"/>
<path d="M627.68,659.87c-2.07-1.27-4.2-3.01-5.34-5.22c-0.37-0.71-0.76-1.52-0.62-2.35c0.18-1.07,0.77-2.01,1.39-2.88
	c1.69-2.35,4.26-3.97,6.82-5.2c2.92-1.4,6.04-1.67,9.15-2.24c1.72-0.38,3.42-0.81,5.1-1.33c0.66-0.25,1.31-0.53,1.95-0.82
	c0.32-0.18,0.64-0.36,0.95-0.55c0.66-0.49,1.3-1.01,1.93-1.55c3.53-3.22,6.62-6.9,9.99-10.27c4.03-4.02,8-8.1,11.79-12.35
	c3.05-3.55,5.85-7.26,8.71-10.97c2.94-3.82,6.16-7.41,9.3-11.05c6.88-7.97,13.43-16.2,20.39-24.11c4.52-5.18,8.84-10.58,13.07-16.01
	c1.98-2.53,3.88-5.11,5.79-7.69c1.92-2.59,3.9-5.12,5.74-7.77c0.85-1.33,1.64-2.68,2.38-4.07c0.81-1.71,1.57-3.45,2.24-5.22
	c0.2-0.64,0.39-1.29,0.56-1.94c0.08-0.49,0.15-0.99,0.2-1.48c0.02-0.66,0.03-1.31,0.01-1.97c-0.04-0.39-0.09-0.78-0.16-1.17
	c0-0.01,0-0.02,0-0.03c-0.3-0.23-0.6-0.47-0.91-0.69c-0.82-0.52-1.65-1-2.51-1.46c-0.48-0.22-0.98-0.43-1.47-0.63
	c-0.1-0.03-0.21-0.06-0.31-0.09c-0.07-0.01-0.14-0.02-0.21-0.03c-0.35,0-0.71,0.01-1.07,0.03c-0.58,0.06-1.15,0.13-1.72,0.21
	c-0.51,0.13-1.02,0.27-1.53,0.43c-1.33,0.52-2.62,1.1-3.91,1.72c0.1-0.05,0.2-0.1,0.3-0.15c-0.02,0.01-0.03,0.01-0.05,0.02
	c-1.03,0.52-2.06,1.06-3.08,1.61c-1.97,1.08-3.9,2.21-5.78,3.43c-3.54,2.53-6.8,5.39-10.06,8.25c0.01-0.01,0.01-0.01,0.02-0.02
	c-1.54,1.36-3.08,2.72-4.62,4.07c0.01,0,0.01-0.01,0.02-0.02c-0.07,0.06-0.14,0.12-0.21,0.19c-6.26,5.61-11.87,11.88-17.66,17.96
	c-2.82,2.97-5.39,6.25-8.34,9.1c-3.42,3.32-8.12,5.51-12.89,5.93c0,0,0,0,0,0c-1.1,0.09-2.7,0.25-3.67-0.39
	c-1.41-0.93-2.14-2.71-2.49-4.29c-0.61-2.77-0.39-5.66,0.47-8.36c0.49-1.53,1.13-3,1.95-4.38c0.92-1.56,2.11-2.86,3.32-4.19
	c1.63-1.79,3.24-3.59,4.88-5.37c3.24-3.54,6.58-7.01,9.89-10.49c3.53-3.72,7.1-7.32,10.93-10.72c0.72-0.63,1.44-1.27,2.17-1.91
	c4.14-3.67,8.24-7.42,12.66-10.74c0.86-0.65,1.74-1.29,2.66-1.84c0.54-0.36,1.09-0.73,1.64-1.08c1.09-0.7,2.22-1.36,3.35-1.99
	c1.27-0.7,2.54-1.39,3.83-2.05c0.61-0.31,1.22-0.65,1.84-0.95c1.16-0.64,2.4-1.16,3.59-1.68c5.99-2.63,12.74-3.48,19.14-2.04
	c2.91,0.66,5.79,2.2,8.34,3.71c2.07,1.23,4.02,2.65,5.79,4.29c4.97,4.62,6.65,11.73,6.25,18.3c-0.22,3.6-0.93,7.01-2.18,10.39
	c-1.06,2.86-2.35,5.61-3.74,8.32c-1.89,3.71-4.44,7.07-6.94,10.39c-2.37,3.14-4.68,6.32-7.07,9.45c-2.54,3.33-5.23,6.54-7.85,9.81
	c-2.89,3.61-5.86,7.11-8.92,10.57c0.29-0.32,0.58-0.65,0.86-0.98c-3.77,4.29-7.29,8.78-10.97,13.14
	c-3.62,4.29-7.28,8.55-10.97,12.77c-3.54,4.05-6.77,8.31-10.07,12.56c-3.57,4.6-7.43,8.95-11.45,13.16
	c-3.98,4.17-8.15,8.16-12.04,12.42c-3.44,3.77-7.22,7.55-11.7,10.07c-2.71,1.52-5.64,2.63-8.64,3.43c-2.62,0.7-5.28,1.36-7.97,1.68
	c-0.76,0.09-1.53,0.14-2.3,0.14C634.15,662.66,630.69,661.72,627.68,659.87z"/>
<path d="M621.89,665.03c-4.75-1.12-7.8-6.16-7.16-10.87c0.29-2.13,1.29-4.13,2.8-5.64c0.93-0.93,1.98-1.61,3.12-2.08
	c0.04-0.02,0.08-0.04,0.12-0.06c-0.04,0.02-0.07,0.04-0.1,0.05c0.4-0.16,0.81-0.3,1.23-0.42c0-0.01-0.01-0.02-0.01-0.03
	c-0.35,0.12-0.7,0.24-1.05,0.36c1.05-0.51,2.1-0.93,3.21-1.33c-0.21,0.07-0.43,0.15-0.64,0.22c1.78-0.63,3.56-1.26,5.34-1.87
	c2.1-0.73,4.2-1.05,6.41-1.08c3.78-0.05,7.62,1.21,10.67,3.43c0.85,0.62,1.72,1.47,2.23,2.4c0.45,0.83,0.38,1.69,0.17,2.59
	c-0.67,2.97-2.8,5.43-5.02,7.43c-1.66,1.42-3.42,2.61-5.39,3.56c-1.4,0.67-2.9,1.13-4.38,1.61c-1.37,0.48-2.73,0.97-4.1,1.43
	c-1.31,0.44-2.74,0.66-4.17,0.66C624.06,665.4,622.94,665.27,621.89,665.03z"/>
<path d="M626.63,666.14c-2.51-0.08-4.92-0.65-7.12-1.86c-1.36-0.74-2.82-2.07-3.17-3.63c-0.42-1.83-0.03-3.79,0.77-5.47
	c1.1-2.3,2.74-4.39,4.87-5.83c1.43-0.97,2.93-1.79,4.6-2.24c1.76-0.47,3.57-0.55,5.37-0.38c2.59,0.25,4.94,1.25,7.07,2.7
	c1.61,1.1,3.3,3.13,3.24,5.2c-0.13,4.42-4.07,7.78-7.76,9.73c-2.34,1.13-4.76,1.78-7.37,1.78
	C626.96,666.15,626.79,666.15,626.63,666.14z"/>
<path d="M741.73,566.85c-2.11-0.1-4.21-0.45-6.13-1.34c-0.8-0.37-1.89-0.9-2.32-1.73c-0.42-0.82-0.52-1.76-0.53-2.66
	c-0.01-1.92,0.6-3.93,1.43-5.65c1.37-2.83,3.36-5.29,5.89-7.18c1.07-0.8,2.16-1.4,3.33-1.99c-0.2,0.1-0.39,0.19-0.58,0.29
	c3.39-1.72,6.5-3.9,9.84-5.7c1.9-1.03,3.84-1.9,5.86-2.65c0.64-0.23,1.26-0.48,1.88-0.76c0.14-0.08,0.27-0.16,0.41-0.24
	c0.51-0.37,1.01-0.74,1.5-1.14c0.21-0.21,0.43-0.43,0.63-0.64c0.43-0.52,0.84-1.05,1.24-1.59c0.59-0.92,1.13-1.87,1.64-2.84
	c0.71-1.51,1.33-3.04,1.91-4.61c0.54-1.67,1.01-3.35,1.41-5.05c0.23-1.25,0.4-2.5,0.52-3.76c0.03-0.92,0.02-1.83-0.01-2.74
	c-0.05-0.49-0.11-0.98-0.18-1.47c-0.09-0.36-0.2-0.73-0.31-1.09c-0.71-1.99-1.4-3.97-2.02-5.98c-0.04-0.1-0.07-0.2-0.1-0.29
	c-0.05-0.13-0.1-0.26-0.14-0.39c-0.08-0.21-0.16-0.43-0.23-0.64c-0.04-0.12-0.08-0.23-0.12-0.35c-0.01-0.03-0.02-0.07-0.04-0.1
	c0,0.01,0.01,0.02,0.01,0.04c-0.35-1.03-0.64-2.05-0.86-3.12c-0.1-0.53-0.19-1.05-0.23-1.6c-0.02-0.31-0.02-0.58,0.06-0.9
	c0.41-1.68,2.19-2.72,3.6-3.42c3.19-1.6,7.33-1.25,10.53,0.07c8.24,3.41,10.43,12.88,10.5,20.91c0.04,5.26-1.12,10.59-2.77,15.56
	c-2.11,6.33-5.03,12.32-9.5,17.33c-2.11,2.35-4.82,4.52-7.63,5.98c-2.26,1.17-4.68,1.94-6.99,3.01c-4.65,2.5-8.9,5.79-13.93,7.49
	c-2.04,0.69-4.29,1-6.47,1C742.46,566.88,742.09,566.87,741.73,566.85z"/>
<path d="M674.06,646.21c-2.15-0.21-4.4-0.78-6.28-1.87c-1.07-0.62-2.1-1.46-2.29-2.74c-0.59-4.02,1.86-8.04,4.42-10.87
	c2.5-2.76,5.8-4.24,9.13-5.72c2.34-1.04,4.65-2.15,6.95-3.26c4.88-2.35,9.68-4.82,14.62-7.04c4.92-2.21,9.93-4.22,14.87-6.38
	c4.79-2.1,9.54-4.29,14.33-6.4c4.9-2.17,9.77-4.38,14.6-6.69c4.47-2.14,8.98-4.18,13.43-6.37c6.01-3.12,11.88-6.64,17.53-10.38
	c3.46-2.38,6.91-4.83,10.1-7.55c1.03-0.95,2.01-1.94,2.96-2.97c0.42-0.51,0.82-1.04,1.22-1.57c0.15-0.24,0.29-0.49,0.44-0.74
	c0.12-0.26,0.23-0.51,0.33-0.78c0.03-0.11,0.06-0.22,0.09-0.33c0.01-0.08,0.02-0.16,0.03-0.23c0-0.61-0.01-1.21-0.04-1.82
	c-0.06-0.62-0.14-1.25-0.23-1.87c-0.09-0.34-0.18-0.68-0.28-1.02c-0.14-0.35-0.29-0.68-0.44-1.02c-0.2-0.34-0.39-0.67-0.6-1
	c-0.24-0.32-0.5-0.64-0.75-0.96c-0.3-0.3-0.6-0.6-0.9-0.89c-0.42-0.33-0.84-0.66-1.27-0.97c-0.46-0.29-0.92-0.57-1.4-0.83
	c-0.27-0.12-0.54-0.23-0.81-0.34c-0.13-0.04-0.27-0.08-0.4-0.11c-0.05-0.01-0.09-0.01-0.14-0.02c-0.23,0-0.47,0.01-0.71,0.02
	c-0.94,0.09-1.87,0.22-2.8,0.39c-1.18,0.27-2.34,0.61-3.49,0.98c-3.24,1.18-6.38,2.57-9.49,4.05c-3.32,1.58-6.64,3.15-9.93,4.77
	c-1.83,0.94-3.66,1.91-5.48,2.87c-1.4,0.74-2.79,1.49-4.22,2.15c-1.66,0.78-3.58,1.18-5.38,1.43c-2.71,0.38-5.63,0.2-8.24-0.64
	c-1.37-0.44-3.43-1.15-4.21-2.5c-1.1-1.93-0.36-4.67,0.34-6.6c1.27-3.49,3.73-6.44,6.63-8.71c1.41-1.1,3.03-1.86,4.6-2.69
	c1.25-0.66,2.5-1.33,3.76-1.98c2.67-1.4,5.37-2.73,8.09-4.02c4.9-2.31,9.74-4.8,14.83-6.69c3.11-1.16,6.2-2.06,9.46-2.68
	c3.08-0.59,6.52-0.9,9.62-0.3c12.84,2.46,23.13,13.82,24.14,26.87c0.26,3.37,0.18,6.55-0.59,9.86c-0.78,3.34-2.65,6.6-4.72,9.29
	c-3.89,5.05-8.82,8.96-13.93,12.69c-9.38,6.84-19.5,12.74-29.99,17.69c-5.06,2.39-10.1,4.81-15.18,7.16
	c-5.23,2.42-10.51,4.71-15.76,7.07c-10.23,4.6-20.65,8.73-30.72,13.67c-4.79,2.35-9.54,4.76-14.43,6.88
	c-2.9,1.26-5.82,1.84-8.87,1.84C675.77,646.35,674.92,646.3,674.06,646.21z"/>
<path d="M653.67,300.79c3.96-3.24,7.57-6.93,10.4-11.22c1.46-2.21,2.83-4.48,3.95-6.89c1.06-2.27,2.01-4.58,2.9-6.92
	c2.55-6.75,4.07-13.78,5.69-20.79c1-4.15,2.06-8.26,3.47-12.29c0.96-2.44,2.03-4.83,3.23-7.16c0.68-1.19,1.4-2.34,2.16-3.48
	c0.82-1.09,1.67-2.14,2.57-3.17c0-0.01,0.01-0.01,0.01-0.02c0,0,0,0.01-0.01,0.01c0.02-0.02,0.03-0.04,0.05-0.06
	c0.26-0.27,0.52-0.54,0.78-0.81c0.74-0.71,1.5-1.4,2.28-2.08c0.79-0.6,1.58-1.17,2.4-1.72c1.19-0.69,2.38-1.34,3.62-1.94
	c0.45-0.19,0.89-0.37,1.34-0.55c0.09,0.13,0.18,0.26,0.27,0.39c2.08,3.09,2.68,6.69,2.26,10.34c-0.18,1.53-0.74,3.11-1.6,4.5
	c-0.07,2.13-0.38,4.26-0.81,6.31c-0.64,3.04-1.28,6.09-2.16,9.07c-0.9,3.08-1.89,6.11-2.92,9.15c-0.98,2.88-2.18,5.69-3.32,8.52
	c-1.4,3.47-3.26,6.82-5.17,10.02c-2.05,3.44-4.49,6.59-7.27,9.46c-1.3,1.33-2.82,2.49-4.26,3.65c-1.52,1.23-3.16,2.36-4.84,3.37
	c-3.73,2.23-7.81,3.89-12.16,4.27c-0.92,0.08-1.84,0.09-2.73,0.04C653.75,300.8,653.71,300.79,653.67,300.79z"/>
<path d="M637.11,288.63c-0.7-1.63-1.16-3.42-1.6-5.14c-0.47-1.84-0.75-3.74-0.93-5.63c-0.43-4.34-0.05-8.78,0.69-13.06
	c0.89-5.19,2.39-10.36,4.28-15.27c1.41-3.65,3.35-7.12,5.46-10.4c2.3-3.6,5.08-6.98,8.2-9.89c5.5-5.14,12.32-9.84,19.82-11.32
	c4.07-1.95,8.42-3.02,12.97-2.62c2.03,0.19,4.06,0.64,5.95,1.4c-1.59,0.66-3.12,1.4-4.59,2.29c-1.57,0.97-3.06,2.05-4.47,3.24
	c-2.88,2.43-5.56,5.25-7.59,8.43c-1.93,3.04-3.75,6.23-5.12,9.57c-1.37,3.36-2.54,6.79-3.57,10.27c-1.97,6.68-3.6,13.45-5.95,20.02
	c0.09-0.25,0.18-0.49,0.28-0.73c-0.16,0.42-0.32,0.84-0.48,1.26c-1.09,2.76-2.25,5.49-3.6,8.13c-0.95,1.67-1.98,3.29-3.09,4.87
	c-0.98,1.29-2.01,2.55-3.1,3.75c-1.63,1.65-3.35,3.18-5.13,4.65c-0.9,0.68-1.8,1.32-2.74,1.93c-0.49,0.28-0.98,0.54-1.47,0.8
	C639.5,293.31,638.13,290.98,637.11,288.63z"/>
<path d="M658.83,311.68c-0.35-0.05-0.7-0.1-1.05-0.15c-0.66-0.15-1.31-0.32-1.95-0.52c-2.39-0.85-4.75-1.82-7.12-2.74
	c-1.45-0.56-2.88-1.17-4.3-1.81c0.12-0.04,0.23-0.09,0.34-0.13c3.21-1.3,6.04-3.24,8.73-5.39c4.02-3.28,7.7-7.01,10.57-11.36
	c1.46-2.21,2.83-4.48,3.95-6.89c1.06-2.27,2.01-4.58,2.9-6.92c2.55-6.75,4.07-13.78,5.69-20.79c1-4.15,2.06-8.26,3.47-12.29
	c0.96-2.44,2.03-4.83,3.23-7.16c0.5-0.87,1.03-1.73,1.57-2.58c0.54,0.28,1.06,0.6,1.55,0.96c-0.08-0.23-0.17-0.46-0.26-0.68
	c-0.04-0.08-0.08-0.15-0.12-0.22c-0.13-0.19-0.27-0.38-0.41-0.56c-0.08-0.09-0.16-0.18-0.24-0.27c0.03-0.04,0.06-0.08,0.08-0.12
	c0.84-1.12,1.7-2.19,2.63-3.23c0.26-0.27,0.52-0.54,0.78-0.81c0.74-0.71,1.5-1.4,2.28-2.08c0.79-0.6,1.58-1.17,2.4-1.72
	c1.19-0.7,2.38-1.34,3.62-1.94c1.3-0.56,2.6-1.06,3.93-1.51c0.62-0.18,1.23-0.35,1.85-0.51c0.33,0.42,0.65,0.85,0.95,1.3
	c2.06,3.07,3.06,6.59,3.33,10.25c0.33,4.47-0.44,8.71-1.49,13.03c-0.4,1.63-0.86,3.24-1.37,4.84c-0.41,1.58-0.96,3.18-1.56,4.7
	c-0.98,2.51-1.95,5.01-3.17,7.41c-1.12,2.22-2.25,4.47-3.52,6.62c-0.25,0.45-0.51,0.91-0.78,1.34c-0.19,0.31-0.39,0.61-0.58,0.92
	c-0.01,0.89-0.08,1.79-0.19,2.7c-0.28,2.36-1.29,4.55-2.14,6.75c-0.12,0.36-0.26,0.71-0.39,1.06c-0.06,0.16-0.11,0.31-0.17,0.47
	c-0.1,0.32-0.22,0.64-0.35,0.96c-0.11,0.34-0.24,0.67-0.39,1c0.03-0.08,0.06-0.15,0.09-0.23c-0.03,0.08-0.06,0.16-0.09,0.24l0,0
	c0,0.01-0.01,0.02-0.01,0.03c-0.99,2.61-2.05,5.19-3.15,7.76c-1.42,3.32-3.44,6.34-5.58,9.22c-2.49,3.34-5.6,5.96-9.12,8.14
	c-3.83,2.37-8.37,3.34-12.83,3.07C659.89,311.8,659.36,311.75,658.83,311.68z"/>
<path d="M629.71,291.17c-0.43-3.26,0-6.5,0.66-9.7c0.61-2.98,1.43-5.84,2.43-8.71c1.81-5.21,3.76-10.37,5.53-15.6
	c1.69-5.03,3.28-10.1,4.78-15.18c1.92-6.5,3.71-13.23,7.05-19.17c1.71-3.02,3.82-5.74,6.61-7.83c1.83-1.37,4.13-2.35,6.29-3.08
	c2.8-0.93,5.6-1.76,8.52-2.19c4.03-0.58,8.07-0.39,12.01,0.6c1.73,0.43,3.42,0.93,5.07,1.56c2.89,0.59,5.7,1.65,8.23,3.15
	c-1.52,0.41-3.01,0.9-4.45,1.49c-1.76,0.71-3.47,1.51-5.09,2.5c-1.57,0.97-3.06,2.05-4.47,3.24c-2.88,2.43-5.56,5.25-7.59,8.43
	c-1.93,3.04-3.75,6.23-5.12,9.57c-1.37,3.36-2.54,6.79-3.57,10.27c-1.97,6.68-3.6,13.45-5.95,20.02c0.01-0.02,0.02-0.05,0.03-0.08
	c-0.07,0.2-0.15,0.4-0.23,0.6c-1.09,2.76-2.25,5.49-3.6,8.13c-0.95,1.68-1.98,3.3-3.09,4.88c-0.98,1.29-2.01,2.55-3.1,3.75
	c-1.63,1.64-3.35,3.18-5.13,4.65c-0.9,0.68-1.81,1.32-2.74,1.93c-0.81,0.46-1.63,0.89-2.47,1.31c-0.96,0.4-1.93,0.77-2.91,1.1
	c-1.75,0.48-3.5,0.87-5.28,1.19C630.87,295.92,630.03,293.61,629.71,291.17z"/>
<path d="M657.79,311.53c-0.66-0.15-1.31-0.32-1.95-0.52c-2.39-0.85-4.75-1.81-7.12-2.74c-1.45-0.56-2.89-1.17-4.31-1.81
	c0.12-0.05,0.24-0.09,0.35-0.14c3.21-1.3,6.04-3.24,8.73-5.39c2.96-2.41,5.74-5.07,8.14-8.04c1.55-0.58,3.09-1.23,4.59-1.9
	c0.33-0.17,0.66-0.34,0.98-0.53c0.67-0.45,1.32-0.93,1.95-1.43c1.04-0.89,2.06-1.83,3.02-2.81c1.52-1.7,2.91-3.53,4.25-5.38
	c1.15-1.65,2.21-3.36,3.28-5.05c1.02-1.63,2.05-3.25,3-4.92c1.28-2.51,2.27-5.14,3.38-7.73c1.48-3.48,3.16-6.85,4.53-10.37
	c1.25-3.41,2.4-6.85,3.27-10.38c0.31-1.43,0.57-2.89,0.74-4.34c0.01-0.26,0.01-0.52,0.01-0.78c-0.06-0.88-0.16-1.76-0.29-2.62
	c-0.09-0.44-0.19-0.88-0.31-1.32c-0.06-0.15-0.12-0.3-0.18-0.46c-0.16-0.3-0.33-0.6-0.51-0.9c-0.48-0.7-0.99-1.38-1.52-2.04
	c-0.4-0.46-0.81-0.91-1.23-1.35c-0.37-0.32-0.76-0.63-1.16-0.93c-0.03-0.02-0.07-0.05-0.1-0.07c0.6-0.56,1.21-1.11,1.83-1.66
	c0.79-0.6,1.58-1.17,2.4-1.72c1.19-0.69,2.38-1.34,3.62-1.94c1.3-0.55,2.6-1.06,3.93-1.51c2.21-0.65,4.43-1.16,6.7-1.58
	c0.02,0.03,0.05,0.06,0.07,0.08c1.18,1.53,2.3,3.18,3.12,4.93c1.68,3.59,2.51,7.42,2.77,11.37c0.29,4.33-0.55,8.62-1.58,12.81
	c-1.11,4.54-2.7,9-4.43,13.34c-1.84,3.21-3.5,6.56-5.01,9.94c-1.7,3.8-3.22,7.68-5.04,11.42c-0.21,0.42-0.43,0.84-0.65,1.26
	c-0.25,0.4-0.5,0.81-0.75,1.21c-2.26,3.59-4.63,7.05-7.23,10.41c-2.44,3.15-5.24,5.87-8.3,8.39c-3.88,3.2-8.5,5.09-13.15,6.83
	c-0.68,0.25-1.35,0.5-2.04,0.73c-0.08,0-0.16,0.01-0.24,0.01c-1.25,0.08-2.49,0.11-3.74,0.07
	C660.31,311.87,659.05,311.74,657.79,311.53z"/>
<path d="M626.61,296.32c-0.78-1.73-1.51-3.48-2.14-5.28c-0.04-0.12-0.08-0.23-0.12-0.35c0-0.01-0.01-0.02-0.01-0.02c0,0,0,0,0,0
	c-0.03-0.1-0.06-0.19-0.1-0.29c0.02,0.06,0.04,0.12,0.06,0.19c-0.29-0.86-0.58-1.71-0.87-2.55c-0.07-1.07-0.09-2.14-0.09-3.2
	c0.02-2.13,0.05-4.23,0.28-6.35c0.4-3.68,1.19-7.34,2.02-10.94c-0.1,0.42-0.19,0.85-0.29,1.27c0.12-0.52,0.24-1.04,0.36-1.57
	c-0.1,0.42-0.19,0.85-0.29,1.27c1.01-4.43,2.31-8.79,3.83-13.07c0.48-1.09,0.97-2.16,1.46-3.24c1.37-3.08,2.77-6.17,4.25-9.21
	c0.44-0.85,0.92-1.7,1.41-2.52c3.66-6.12,7.06-12.4,11-18.34c0.68-0.98,1.38-1.95,2.05-2.93c0.22-0.33,0.43-0.66,0.65-0.99
	c0.53-0.75,1.08-1.46,1.65-2.17c0.67-0.44,1.39-0.85,2.14-1.2c0.82-0.85,1.68-1.68,2.58-2.46c0.92-0.96,1.86-1.89,2.82-2.78
	c1.87-1.73,4.08-2.98,6.48-3.29c2.17-0.9,4.44-1.5,6.79-1.91c1.91-0.34,3.87-0.54,5.81-0.37c2.08,0.18,4.07,0.56,6.1,1.04
	c6.64,1.56,13.33,4.27,18.5,8.83c-3.58,0.39-7.19,1.29-10.53,2.63c-1.76,0.71-3.47,1.51-5.09,2.5c-1.57,0.97-3.06,2.05-4.47,3.24
	c-0.65,0.55-1.29,1.12-1.91,1.7c-0.49-0.13-0.98-0.25-1.48-0.37c-0.78-0.16-1.55-0.3-2.34-0.41c-0.05,0-0.11,0-0.17-0.01
	c-0.55,0.05-1.09,0.13-1.63,0.21c-0.47,0.09-0.93,0.2-1.39,0.33c-0.24,0.09-0.49,0.18-0.73,0.28c-0.47,0.23-0.92,0.47-1.37,0.73
	c-1.1,1.05-2.26,2.04-3.35,3.09c-1.05,1.23-2.06,2.5-3.04,3.79c-1.39,2.01-2.67,4.09-3.86,6.22c-1.62,2.9-4.17,5.41-7.04,7.13
	c-0.99,2.01-1.93,4.04-2.82,6.1c-1.18,2.74-2.39,5.49-3.46,8.28c-1.57,4.27-3.03,8.62-4.08,13.04c-0.66,2.91-1.25,5.88-1.58,8.85
	c-0.11,1.61-0.13,3.25-0.08,4.87c0.03,0.45,0.08,0.9,0.14,1.35c0.04,0.16,0.07,0.32,0.12,0.48c0.14,0.38,0.29,0.75,0.45,1.13
	c0.29,0.58,0.59,1.15,0.91,1.7c0.2,0.3,0.42,0.58,0.64,0.87c0.25,0.28,0.5,0.55,0.77,0.81c-0.03,0.02-0.05,0.04-0.08,0.06
	c-0.9,0.68-1.8,1.32-2.74,1.93c-0.81,0.46-1.63,0.9-2.47,1.31c-0.96,0.41-1.93,0.77-2.91,1.1c-1.75,0.48-3.51,0.87-5.3,1.19
	c-0.91,0.13-1.83,0.25-2.75,0.35C628.42,297.69,627.51,297.01,626.61,296.32z"/>
<path d="M606.01,255.31c-0.38-0.2-0.76-0.39-1.14-0.58c-0.29-0.2-0.58-0.39-0.88-0.58c-0.62-0.4-1.26-0.77-1.9-1.12
	c-0.11-0.24-0.21-0.47-0.3-0.71c-0.41-0.24-0.82-0.49-1.24-0.74c-1.14-0.68-2.24-1.35-3.31-2.14c-1.34-0.98-2.54-2.19-3.66-3.4
	c-2.09-2.26-3.89-4.72-5.51-7.33c-2.88-4.63-4.96-9.87-6.07-15.19c-1.22-5.84-1.17-11.87,0.83-17.53c1.53-4.33,4.01-8.44,7.32-11.68
	c0.48,2.32,1.24,4.57,2.26,6.72c2.13,4.52,4.98,8.74,8.67,12.14c-0.08-0.07-0.16-0.15-0.24-0.22c1.28,1.17,2.57,2.32,3.9,3.43
	c1.11,0.92,2.23,1.82,3.34,2.73c2.36,1.93,4.74,3.85,7.01,5.89c0.9,0.86,1.77,1.75,2.61,2.67c0.48,0.59,0.95,1.18,1.38,1.81
	c0.16,0.27,0.31,0.55,0.45,0.83c0.15,0.36,0.29,0.72,0.42,1.09c0.14,0.51,0.26,1.01,0.35,1.53c0.08,0.59,0.14,1.17,0.17,1.76
	c0.01,0.58-0.01,1.15-0.05,1.72c-0.04,0.34-0.08,0.68-0.13,1.02c-0.99,2.08-1.9,4.21-2.8,6.33c-1.08,2.58-2.06,5.19-2.92,7.85
	c-0.14,0.46-0.29,0.92-0.43,1.38c-0.81,0.62-1.68,1.16-2.61,1.65c-1.33,0.68-2.71,1.17-4.17,1.43
	C606.91,255.79,606.46,255.55,606.01,255.31z"/>
<path d="M624.19,224.07c-0.86-1.08-1.8-2.09-2.79-3.05c-1.8-1.75-3.78-3.3-5.75-4.85c-2-1.56-4.04-3.07-6.08-4.59
	c-1.93-1.43-3.81-2.92-5.62-4.5c-0.82-0.8-1.63-1.61-2.41-2.46c-1.43-1.74-2.76-3.53-4.02-5.39c-0.42-0.69-0.84-1.37-1.22-2.07
	c-0.38-0.7-0.73-1.41-1.07-2.12c-0.35-0.87-0.7-1.72-0.99-2.61c-0.11-0.39-0.22-0.78-0.31-1.18c0.54-0.36,1.11-0.69,1.68-1
	c2.08-1.12,4.28-2.06,6.53-2.75c3.08-0.95,6.24-1.75,9.48-1.94c5.59-0.33,11.2,0.17,16.49,2.08c4.22,1.52,8.5,3.24,12.21,5.8
	c1.29,0.89,2.4,1.82,3.55,2.87c1.56,1.44,2.48,3.36,3.06,5.36c0.23,0.79,0.34,1.57,0.34,2.32c-0.67,0.43-1.33,0.87-1.97,1.34
	c-0.83,0.61-1.57,1.33-2.35,2c0.2-0.18,0.41-0.35,0.6-0.52c-0.63,0.54-1.24,1.09-1.86,1.63c0.12-0.11,0.24-0.21,0.37-0.31
	c-2.1,1.82-4.03,3.78-5.87,5.87c0,0,0,0.01-0.01,0.01c-0.01,0.01-0.01,0.02-0.02,0.03l0,0c-1.33,1.52-2.63,3.08-3.94,4.63
	c-1.21,1.44-2.27,2.99-3.36,4.51c-0.94,1.32-1.84,2.67-2.69,4.04C625.63,226.1,624.97,225.06,624.19,224.07z"/>
<path d="M728,198.72c-2.6,0.54-5.14-0.05-7.18-1.42c1.56-1.04,3.03-2.17,4.48-3.39c1.57-1.33,2.94-2.91,4.28-4.46
	c1.37-1.6,2.59-3.33,3.81-5.05c2.27-3.22,4.16-6.8,5.72-10.42c1.62-3.75,3.04-7.56,4.28-11.45c1.18-3.71,2.38-7.38,3.75-11.02
	c2.05-4.82,4.56-9.43,7.16-13.98c1.03-1.76,2.06-3.53,3.2-5.22c1.12-1.66,2.29-3.28,3.5-4.87c1.21-1.46,2.45-2.86,3.77-4.22
	c1.7-1.59,3.43-3.09,5.27-4.51c0.93-0.64,1.87-1.24,2.83-1.83c1.26-0.66,2.53-1.26,3.84-1.81c1.85-0.69,3.73-1.29,5.63-1.84
	c0.18-0.05,0.36-0.09,0.54-0.14c0.11,0.15,0.22,0.3,0.33,0.45c0.96,1.51,1.79,3.11,2.6,4.72c0.41,4.31,0.12,8.71-0.51,12.95
	c-0.83,5.59-2.47,11.1-4.32,16.43c-0.94,2.71-1.94,5.4-3.18,7.99c-1.18,2.47-2.44,4.9-3.7,7.33c-2.62,5.06-5.13,10.19-8.17,15.01
	c-3.1,4.92-6.7,9.6-11.17,13.35c-2.52,2.11-5.17,3.96-8.12,5.43c-3.9,1.94-8.13,2.82-12.47,2.74c-0.37-0.01-0.74-0.02-1.11-0.04
	C731.36,199.36,729.66,199.1,728,198.72z"/>
<path d="M712.07,185.81c-1.73-2.29-3.2-4.78-4.3-7.44c-1.02-2.44-1.83-5.02-2.39-7.61c-0.71-3.35-0.98-6.65-1.02-10.06
	c-0.07-5.66,0.45-11.49,1.86-16.98c0.72-2.78,1.81-5.47,2.96-8.1c1.19-2.74,2.4-5.47,3.83-8.1c2.46-4.55,5.26-8.97,8.61-12.91
	c3.54-4.16,7.23-8.25,11.43-11.76c3.86-3.21,8.39-6.19,13.31-7.42c1.2-0.3,2.45-0.51,3.71-0.62c0.98,0.09,1.95,0.23,2.92,0.38
	c2.58,0.51,5.12,1.21,7.64,1.99c1.07,0.37,2.11,0.8,3.14,1.26c1.53,0.75,3.01,1.55,4.45,2.44c3.05,2.02,6.07,4.09,8.94,6.35
	c-2.38,0.45-4.73,1.07-6.99,1.94c-4,1.53-7.63,3.89-10.99,6.51c-3.34,2.6-6.3,5.73-8.8,9.14c-2.44,3.32-4.63,6.8-6.59,10.44
	c-1.94,3.6-3.83,7.27-5.34,11.08c-1.44,3.62-2.68,7.3-3.89,11.01c-1.18,3.6-2.45,7.16-3.86,10.67c-1.16,2.65-2.39,5.25-3.79,7.79
	c-1.19,1.93-2.46,3.78-3.82,5.59c-1.05,1.29-2.13,2.52-3.27,3.73c-0.77,0.72-1.56,1.41-2.37,2.08c-1.11,0.82-2.25,1.58-3.43,2.3
	c0,0-0.01,0-0.01,0.01C713.24,188.37,712.61,187.11,712.07,185.81z"/>
<path d="M727.85,200.27c-2.53-0.63-4.96-1.6-7.23-2.85c1.63-1.08,3.17-2.24,4.67-3.51c1.57-1.33,2.94-2.91,4.28-4.46
	c1.37-1.6,2.59-3.33,3.81-5.05c0.53-0.75,1.03-1.51,1.52-2.29c0.34,0.05,0.68,0.09,1.03,0.13c0.68,0.06,1.36,0.09,2.05,0.1
	c0.44-0.03,0.89-0.08,1.34-0.13c0.29-0.06,0.58-0.12,0.86-0.19c0.36-0.13,0.71-0.28,1.06-0.43c0.61-0.29,1.22-0.6,1.81-0.92
	c0.38-0.27,0.76-0.56,1.12-0.85c2.46-2.14,4.78-4.5,7-6.89c0.73-0.84,1.42-1.7,2.08-2.59c1.6-2.43,2.96-5.01,4.31-7.58
	c3.79-7.3,7.12-14.87,10.06-22.56c1.78-5,3.22-10.16,4.45-15.32c0.15-0.73,0.28-1.45,0.38-2.18c0.04-0.62,0.05-1.25,0.05-1.88
	c-0.03-0.5-0.09-0.99-0.15-1.49c-0.12-0.63-0.25-1.25-0.4-1.87c0.3-0.19,0.59-0.37,0.9-0.56c1.26-0.66,2.53-1.26,3.84-1.81
	c1.85-0.69,3.73-1.29,5.63-1.84c0.18-0.05,0.36-0.1,0.54-0.14c0.11,0.14,0.22,0.29,0.33,0.45c1.24,1.95,2.27,4.05,3.3,6.11
	c0.81,1.61,1.59,3.23,2.23,4.91c0.26,0.82,0.5,1.65,0.7,2.49c0.25,1.39,0.4,2.79,0.52,4.2l0,0c0,0.04,0.01,0.08,0.01,0.12
	c0,0.02,0,0.04,0,0.06c0.02,0.29,0.05,0.58,0.08,0.87c-0.49,1.86-1.04,3.7-1.55,5.53c-2.72,9.72-6.72,19.09-11.08,28.17
	c-1.24,2.59-2.57,5.13-3.91,7.66c-1.15,2.16-2.28,4.35-3.64,6.39c-2.98,4.48-6.77,8.26-10.6,12c-3.58,3.5-7.68,6.26-12.39,7.98
	c-3.09,1.13-6.41,1.53-9.68,1.53c-0.59,0-1.19-0.02-1.78-0.05C732.86,201.35,730.3,200.88,727.85,200.27z"/>
<path d="M708.69,185.38c-1.48-3.03-2.48-6.14-3.42-9.37c-0.72-2.47-1.31-4.94-1.65-7.5c-0.49-3.73,0.41-7.21,2.14-10.48
	c1.31-2.47,3.51-4.52,6.05-5.67c1.16-0.52,2.89-0.97,4.07-0.27c1.71,1.02,2.92,3.15,3.86,4.8c0.78,1.38,1.42,2.87,1.88,4.38
	c0.54,1.79,0.83,3.58,1.12,5.41c0.38,1.96,0.92,3.87,1.49,5.79c0.39,1.24,0.81,2.46,1.32,3.66c0.16,0.33,0.34,0.66,0.52,0.98
	c-0.95,1.46-1.95,2.89-2.99,4.29c-1.05,1.29-2.13,2.52-3.27,3.73c-0.77,0.72-1.56,1.41-2.36,2.08c-1.11,0.82-2.25,1.58-3.43,2.3
	c-0.65,0.33-1.3,0.65-1.96,0.95C710.72,188.92,709.58,187.2,708.69,185.38z"/>
<path d="M746.03,118.79c-0.72-0.09-1.24-0.53-1.75-1.02c-1.32-1.27-2.04-3.17-2.36-4.93c-0.71-3.9,0.1-7.68,1.96-11.14
	c1.66-3.1,4.63-5.2,7.75-6.7c0.46,0.06,0.92,0.13,1.37,0.2c2.58,0.51,5.12,1.21,7.63,1.99c1.07,0.37,2.11,0.8,3.14,1.26
	c1.53,0.75,3.01,1.55,4.45,2.45c3.04,2.01,6.07,4.08,8.93,6.35c-2.38,0.45-4.72,1.07-6.99,1.94c-2.03,0.77-3.95,1.76-5.8,2.88
	c-0.37-0.05-0.73-0.09-1.1-0.12c-0.6-0.05-1.21-0.07-1.82-0.07c-0.1,0.01-0.2,0.02-0.3,0.03c-0.16,0.03-0.32,0.07-0.47,0.11
	c-0.24,0.09-0.47,0.18-0.71,0.28c-0.12,0.06-0.23,0.12-0.34,0.18c-0.14,0.1-0.27,0.2-0.4,0.31c0.06-0.05,0.11-0.1,0.17-0.15
	c-1.73,1.43-3.44,2.75-5.41,3.89c-1.32,0.76-2.74,1.31-4.19,1.74c-1.07,0.32-2.25,0.63-3.39,0.56
	C746.27,118.82,746.15,118.81,746.03,118.79z"/>
<path d="M653.04,313.84c-0.72-0.16-1.43-0.33-2.13-0.54c-2.29-0.83-4.5-1.91-6.71-2.9c-1.71-0.76-3.44-1.49-5.15-2.27
	c1.95-0.46,3.85-1.06,5.72-1.81c3.21-1.3,6.04-3.24,8.73-5.39c0.61-0.5,1.22-1.01,1.82-1.54c0.71,0.08,1.42,0.16,2.13,0.22
	c0.43,0.01,0.86,0,1.29-0.02c1.37-0.12,2.75-0.3,4.11-0.54c0.07-0.02,0.14-0.03,0.2-0.05c1.03-0.39,2.05-0.81,3.09-1.2
	c1.19-0.44,2.41-0.89,3.57-1.42c0.88-0.48,1.74-1.01,2.59-1.55c0.09-0.07,0.17-0.13,0.26-0.19c0.79-0.76,1.53-1.57,2.26-2.39
	c1.06-1.21,2.08-2.43,3.01-3.73c1.45-2.3,2.7-4.72,4.04-7.09c1.49-2.65,3.01-5.28,4.44-7.97c1.24-2.66,2.21-5.45,3.56-8.05
	c1.63-3.14,4.36-6.05,7.55-7.63c1.34-0.67,2.75-1.19,4.26-1.33c1.06-0.1,2.34-0.15,3.24,0.52c0.64,0.48,1.1,1.23,1.45,1.93
	c0.52,1.01,0.88,2.07,1.15,3.17c-1.76,3.1-3.35,6.32-4.8,9.57c-1.7,3.8-3.22,7.68-5.04,11.42c-0.99,1.95-2.06,3.87-3.12,5.79
	c-1.13,2.05-2.33,4.09-3.63,6.04c-1.83,2.66-3.75,5.31-5.85,7.76c-0.83,0.89-1.72,1.74-2.63,2.54c-1.05,0.89-2.12,1.76-3.25,2.54
	c-0.79,0.52-1.6,1.02-2.44,1.46c-1.95,0.91-3.97,1.7-6,2.42c-1.94,0.64-3.9,1.14-5.89,1.57c-2.18,0.41-4.38,0.66-6.59,0.84
	c-1.06,0.07-2.12,0.09-3.18,0.06C654.41,314.04,653.72,313.96,653.04,313.84z"/>
<path d="M624.47,291.05c-0.01-0.03-0.02-0.06-0.03-0.08c0,0,0.01,0.01,0.01,0.02c0-0.01-0.01-0.03-0.01-0.03
	c-0.06-0.18-0.12-0.36-0.19-0.54c-0.01-0.01-0.01-0.03-0.02-0.05c0-0.02-0.01-0.03-0.02-0.05c-0.26-0.77-0.52-1.54-0.78-2.3
	c1.04-1.81,2.53-3.3,4.48-4.14c0.31-0.13,0.64-0.22,0.97-0.23c1.47-0.03,2.67,1.03,3.81,1.8c-0.01,0-0.02-0.01-0.02-0.01
	c2.75,1.92,4.98,4.37,7.18,6.9c0,0,0,0,0,0c-0.13-0.15-0.27-0.31-0.4-0.47c0.17,0.19,0.35,0.38,0.53,0.57
	c0.06,0.05,0.12,0.09,0.18,0.13c0.92,0.59,1.87,1.15,2.83,1.7c-0.07,0.05-0.15,0.1-0.23,0.15c-0.81,0.46-1.63,0.9-2.47,1.31
	c-0.96,0.4-1.93,0.77-2.91,1.1c-1.75,0.49-3.51,0.87-5.3,1.19c-1.48,0.2-2.96,0.39-4.45,0.52
	C626.47,296.08,625.37,293.6,624.47,291.05z"/>
</svg>
