<svg id="Layer_1" data-name="Layer 1" xmlns="http://www.w3.org/2000/svg" viewBox="0 0 717.89 146.48"><title>FOLKUL_1</title><g id="q2gYA1"><path d="M194.4.26c17,.16,34.41,4.7,48.09,15.47,19.77,15.55,27.73,41.94,23,66.22-2.1,10.75-6.6,20.08-12.32,29.3-12.34,19.9-35.35,28.06-57.39,30.94-.32,0-.64.05-1,.08a82.94,82.94,0,0,1-29.25-3.1,9,9,0,0,0-6.2.34c-4,1.67-8.08,3.2-12.22,4.49a40.49,40.49,0,0,1-8.55,1.77c-4.83.43-9.69.6-14.54.61a13,13,0,0,1-4.94-1.26c-1.75-.74-1.83-1.62-.56-3,1-1.12,2-2.26,3.12-3.3,3.14-2.94,4.73-6.72,6-10.7a10.36,10.36,0,0,0-1.68-9.75c-1.43-2-3.19-3.76-4.21-5.92-9-18.81-12.59-39.6-5.1-59.73.56-1.5.88-3.1,1.46-4.59,6.26-16.14,19-29.72,34-38.11A64.86,64.86,0,0,1,164,4.81,95.65,95.65,0,0,1,194.4.26ZM139.33,132.85a13,13,0,0,0,8.36-1.88c2.83-1.55,5.38-3.59,8.21-5.15,4.13-2.28,8.37-3.78,13.26-1.93a51.79,51.79,0,0,0,18.14,3c3.14,0,6.35.25,9.39-.32,7.72-1.43,15.34-3.1,22.46-6.83,23-12.1,35.33-38.21,30.75-63.86-.07-.39-.15-.78-.23-1.17a44.93,44.93,0,0,0-9-18.68c-11.36-14.65-21.57-18.13-38.32-20.39-24.57-3.3-51.13,8.18-64.38,29.41a59.37,59.37,0,0,0-3.43,6.33,61.3,61.3,0,0,0-4.13,38.72,42.57,42.57,0,0,0,5,13.24c2.07,3.48,4.1,7,6.29,10.38a11.27,11.27,0,0,1,1.58,8.72,39.85,39.85,0,0,1-1.89,5.75C140.81,129.71,140.09,131.14,139.33,132.85Z"/><path d="M405.28,76.1l17.91-15.41,57-49.19c2.38-2.05,4.81-4,7.1-6.18A6.44,6.44,0,0,1,492,3.55c4.66,0,9.32,0,14-.1,1.6,0,2.86.42,3.38,2a3.44,3.44,0,0,1-1.3,4c-4.5,3.76-8.94,7.61-13.39,11.44q-25,21.51-49.91,43c-2.41,2.07-2.45,2.43-.5,5.28q12.9,19,25.84,37.89,8.63,12.66,17.22,25.36c.68,1,1.51,2,.74,3.32a3.39,3.39,0,0,1-3.34,1.61q-6.52-.07-13.06.08a5.06,5.06,0,0,1-4.74-2.61c-7-10.53-14.14-21-21.23-31.48Q437.76,91.64,429.83,80c-.29-.42-.59-.83-.91-1.22a1.17,1.17,0,0,0-1.85-.15c-1.09.9-2.16,1.83-3.24,2.75-7.33,6.23-14.62,12.5-22,18.67a8.58,8.58,0,0,0-3.17,5.29c-1.67,8.74-3.46,17.45-5.21,26.18a13.92,13.92,0,0,1-.49,2.05,4.27,4.27,0,0,1-4.54,3.26c-3.64,0-7.3-.13-10.94.05a3.57,3.57,0,0,1-3.75-4.55c1.22-5.42,2.25-10.89,3.34-16.35q5.4-27.06,10.82-54.14c2.11-10.51,4.3-21,6.41-31.5,1.39-6.94,2.69-13.9,4-20.85.14-.7.26-1.4.45-2.08a4.71,4.71,0,0,1,5.07-3.88c3.44,0,6.89,0,10.33,0,3.28,0,4.65,1.7,4,4.88-1.6,7.82-3.28,15.63-4.85,23.46-2.22,11-4.37,22-6.54,33q-1.08,5.48-2.17,11Z"/><path d="M537.32,3.5c1.72,0,3.44,0,5.16,0,3.43.05,4.7,1.7,4,5.12-1.55,7.52-3.13,15-4.64,22.57q-4.58,22.89-9.12,45.8c-1.15,5.76-2.33,11.52-1.89,17.44.47,6.38,2.11,12.36,6.27,17.41a22.59,22.59,0,0,0,10.76,7.1c12.26,3.93,24.34,3.7,36-2.11A35.27,35.27,0,0,0,599,101.91a76.3,76.3,0,0,0,7.83-22.23q4.26-20.81,8.37-41.64c1.94-9.82,3.84-19.65,5.64-29.49.53-2.85,2.28-5.33,6-5.11,3.13.2,6.28.06,9.42.08,3.7,0,4.92,1.49,4.18,5.18-1.51,7.54-3.08,15.06-4.63,22.6-3.11,15.15-6.06,30.33-9.39,45.43-1.89,8.58-3.59,17.23-7.11,25.38-4.83,11.14-11.95,20.38-22.12,27.14a57.35,57.35,0,0,1-21.64,8.36,71,71,0,0,1-36-2.22c-8.26-2.75-15.3-7.35-20.42-14.54a43,43,0,0,1-7.16-18.2c-1.31-7.8-.63-15.55.85-23.23,2.75-14.19,5.67-28.35,8.49-42.53,1.83-9.23,3.61-18.46,5.42-27.69a14.47,14.47,0,0,1,.56-2.36,4.64,4.64,0,0,1,4.56-3.36h5.47Z"/><path d="M69.62,3.71q17.16,0,34.31,0c1.91,0,3.82-.18,5.73-.14a9.89,9.89,0,0,1,3.26.51,3.17,3.17,0,0,1,2.15,4.31c-.66,2.34-1.33,4.68-2.13,7-1.25,3.61-3.52,5.16-7.32,5.16l-57.08-.1c-1,0-2,0-3,0-3.2,0-3.63.41-4.25,3.5q-3,15.17-6.09,30.32c-.59,3-1.22,5.94-1.81,8.92-.69,3.42-.66,3.45,2.72,3.46h9.11q19.91,0,39.8,0a33.28,33.28,0,0,1,4.24.24c2,.26,2.87,1.11,3,3.14A10.19,10.19,0,0,1,92,73.34c-.68,2.43-1.57,4.81-2.3,7.22a3.6,3.6,0,0,1-3.59,2.73c-2.52.11-5,.13-7.56.12q-22.46,0-44.89-.14c-.61,0-1.22,0-1.82,0-1.93.13-2.4.48-2.84,2.47q-1.17,5.33-2.21,10.69-3.48,17.7-6.89,35.42c-.59,3.06-2.7,4.93-5.66,4.76-3.13-.17-6.28-.06-9.42-.08-4,0-5.19-1.4-4.43-5.21,1.49-7.44,3.06-14.86,4.54-22.3Q9.7,85.1,14.45,61.15q3.38-16.95,6.81-33.89,2-9.81,3.94-19.62c.81-4,.94-4.16,5.21-4.16H69.62Z"/><path d="M314.14,137.41c-12.16,0-24.32-.1-36.48.08-2.94,0-3.9-2.15-5.48-3.66-.37-.35,0-1.53.13-2.3,1.09-5.56,2.21-11.12,3.31-16.67,3.39-17.07,6.74-34.14,10.17-51.19,2.22-11,4.57-22,6.81-33,1.43-7,2.76-14.09,4.14-21.14.16-.79.28-1.6.51-2.37a4.68,4.68,0,0,1,4.92-3.69c3.55,0,7.09,0,10.64,0,3,.05,4.42,1.76,3.81,4.78-1.65,8-3.4,16-5,24.05C309,45.22,306.51,58.12,303.93,71q-4,20.23-8.15,40.45c-.44,2.18-.93,4.35-1.36,6.53-.37,1.89-.16,2.17,1.68,2.27.81,0,1.62,0,2.43,0H353c4,0,5,1.86,5,4.73a27.33,27.33,0,0,1-1.62,8.89,5.22,5.22,0,0,1-5.4,3.57C338.66,137.34,326.4,137.41,314.14,137.41Z"/><path d="M675.75,137.41c-11.24,0-22.48-.18-33.72.09-4.56.11-6-3.28-5.28-6.75,1.68-7.91,3.24-15.84,4.82-23.77q4.6-23,9.2-46.08c2-10,4.13-20,6.15-30,1.44-7.13,2.8-14.28,4.2-21.42a21.44,21.44,0,0,1,.51-2.38,4.69,4.69,0,0,1,5-3.62q5.16,0,10.32,0c3.31,0,4.69,1.66,4.05,4.83-1,4.95-2.08,9.89-3.08,14.84q-5.08,25.26-10.14,50.52-4.41,21.84-8.87,43.67c-.1.49-.15,1-.22,1.5-.11.86.23,1.36,1.14,1.37s1.62,0,2.43,0h49.54c4.76,0,6,2.37,5.74,6.91a49,49,0,0,1-1.17,6.56c-.43,2.06-2.71,3.57-5.67,3.65s-5.67,0-8.5,0H675.75Z"/></g></svg>